<svg xmlns="http://www.w3.org/2000/svg" viewBox="0 0 39.687 39.687"><path d="M19.844 2.037c-5.953 0-14.08 5.977-14.08 18.922 0 10.442 7.34 16.692 14.08 16.692s14.08-6.25 14.08-16.692c0-12.945-8.127-18.922-14.08-18.922z" fill="#1e2d68"/><path d="m19.21 2.17-2.99.701s.969 1.136.868 1.453c-.1.318-1.035 1.153-1.035 1.153s1.67.033 1.77.635c.1.601-.45 2.338-.45 2.338s2.02-1.486 2.271-1.303c.25.184.084 1.788.084 1.788s1.42-1.404 1.92-1.42c.502-.017 1.688.768 2.256.818-.134-.634-1.47-2.104-1.487-2.372-.016-.267.903-1.62.903-1.62s-1.688.501-1.872.134c-.183-.368.702-1.82.702-1.82l-1.07-.418s-.7.75-1.118.75c-.418 0-.752-.818-.752-.818zm8.168 2.706-.016.083s-.234.969-.434 1.053c-.2.083-1.136-.184-1.136-.184s.768.868.751 1.253c-.017.384.602 1.52.602 1.887.45-.467 1.453-1.186 2.305-.952.852.234.801.1.801.1zm-16.653 1.75-.968.78s-.969 2.268-.473 1.536c.496-.733 1.5-.438 1.96-.45-.543-.46-.52-1.866-.52-1.866zm2.982 2.116c-.166.914.932 3.107.63 4.235-.253.952-.94 1.596-2.035 2.284 0 0 2.759-.054 3.071.474.313.528-3.289 4.946-3.289 4.946s4.792-1.304 5.473-.68c.681.626-.005 3.623-.005 3.623s1.22-2.112 1.952-1.843c.732.268 2.347 2.626 3.965 3.928-.318-2.053-1.553-4.63-1.42-5.399.134-.768 2.573-.768 2.573-.768s-2.438-1.504-2.639-2.406c-.2-.902 2.906-4.41 2.906-4.41s-5.044 1.17-5.345.635c-.3-.534.668-2.505.668-2.505-1.144.604-2.252.835-3.203.579-1.127-.303-2.427-2.38-3.302-2.693zm18.065 2.581s-.502 1.153-1.17 1.22c0 0 1.52.568 1.42 1.07-.1.5-1.587 2.254-1.587 2.254s2.122-.434 2.339-.1c.217.334.117 1.987.117 1.987l.584-1.118zM6.325 14.838l-.612 2.466.29 5.937c.336-.283.661.003.893.144.464.28 1.318 1.77 2.249 2.872.056-1.442-.444-2.997-.25-3.503.193-.507 2.124-.383 2.124-.383s-1.664-1.55-1.681-2.192c-.017-.642 2.536-2.32 2.536-2.32s-3.463-.175-3.598-.58c-.134-.404 1.09-1.887 1.09-1.887-1.113.227-2.248.143-3.04-.554zm23.325 4.32s-.751 1.019-1.32 1.37c-.567.35-1.47.918-1.47.918s.886.585 1.07.936c.183.35.3 1.286.3 1.286s.702-.835 1.07-1.036c.367-.2 1.453-.117 1.453-.117s-.535-.7-.502-1.052c.034-.35-.55-1.537-.6-2.305zm3.775 4.878s-.567.768-.851.818c0 0 .484.618.133.919-.35.3-1.303.568-1.303.568s1.32.367 1.337.751c.016.385.718-1.202.718-1.202zm-17.389.584s-.15.668-.434 1.036c-.284.367-1.47.467-1.47.467s.635.618.969.936c.334.317.467 1.053.284 1.353.284-.184 1.336-.434 1.653-.768.318-.334 2.055-.552 2.055-.552s-1.035-.517-1.637-.918c-.601-.401-1.42-1.554-1.42-1.554zm9.488 1.387s.412 1.386.35 2.38c-.057.939-1.653.81-1.653.81s1.07.217 1.303 1.22c.234 1.002-1.27 1.954-1.27 1.954s1.237-.4 2.122-.317c.885.083 0 1.954 0 1.954s.551-.367 1.102-.618c.552-.25 1.254.551 1.254.551l2.522-2.94s-1.27.067-1.403-.4c-.134-.469 1.837-2.022 1.837-2.022s-2.539.618-2.856.034c-.318-.585.668-1.821.668-1.821s-1.103.818-1.77.868c-.67.05-2.206-1.653-2.206-1.653zM8.586 29.214c.702.852 1.12 2.556 1.537 3.792.418 1.236 5.279 3.474 5.279 3.474s.133-.735.935-.434c.802.3 3.725 1.07 3.725 1.07s-2.756-1.504-2.924-2.39c-.167-.885 2.24-1.954 2.24-1.954s-3.142.835-3.526.284c-.384-.551.318-2.907.318-2.907s-2.606 1.37-3.024 1.187c-.417-.184-.2-1.988-.2-1.988s-1.036.952-2.005.985c-.968.033-1.92-1.12-2.355-1.12z" fill="#e2e4e3"/><path d="M19.844 2.037c-8.886 0-14.08 9.48-14.08 18.922 0 0 1.718-16.918 14.08-16.918s14.08 16.918 14.08 16.918c0-9.441-5.195-18.922-14.08-18.922z" opacity=".238" fill="#fff"/><path d="M5.764 20.96c.25 12.681 10.938 16.69 14.08 16.69 3.141 0 13.83-4.009 14.08-16.69-1.822 10.269-10.607 13.433-14.08 13.433-3.474 0-12.258-3.164-14.08-13.434z" opacity=".541"/><path d="M19.844 2.037c-5.953 0-14.08 5.976-14.08 18.922 0 10.442 7.34 16.692 14.08 16.692s14.08-6.25 14.08-16.692c0-12.946-8.127-18.922-14.08-18.922z" fill="none" stroke="#000" stroke-width="1.058"/></svg>