<svg xmlns="http://www.w3.org/2000/svg" viewBox="0 0 39.687 39.687"><path d="M19.844 2.037c-5.953 0-14.08 5.977-14.08 18.922 0 10.442 7.34 16.692 14.08 16.692s14.08-6.25 14.08-16.692c0-12.945-8.127-18.922-14.08-18.922z" fill="#003a7d"/><path d="M14.332 3.606 12.094 5.31l4.51 3.04 8.152-1.436 3.04 2.505 3.073-.5-2.271-2.974-1.002.3-2.139-1.67-7.884 1.303-3.24-2.272zm-.267 6.381 8.686 5.379 7.35-1.838 3.541 4.477-.901-4.71L30 10.923l-7.951 1.77-7.985-2.706zm-5.58 2.239-1.302.701-.969 3.575 1.604-1.203 6.982 2.974 5.078-.034 5.279 2.172-5.647-4.878-4.877.033-6.147-3.34zm10.825 9.087-9.254.902 8.218 1.27 7.317 4.476 7.784-1.704.368-2.505-7.016 1.236-7.417-3.675zM5.88 24.119l.368 2.472 5.98-.568L5.88 24.12zm6.448 5.813-3.842 1.036 2.071 2.572.802-.701 4.71 3.34 5.814-.567 1.904 1.303.902-.502-2.539-2.94-5.112.535-4.71-4.076zm8.853.334 6.782 4.444 1.704-1.77-8.486-2.674z" fill="#db1d00"/><path d="M19.844 2.037c-8.886 0-14.08 9.48-14.08 18.922 0 0 1.718-16.918 14.08-16.918s14.08 16.918 14.08 16.918c0-9.441-5.195-18.922-14.08-18.922z" opacity=".238" fill="#fff"/><path d="M5.764 20.96c.25 12.681 10.938 16.69 14.08 16.69 3.141 0 13.83-4.009 14.08-16.69-1.822 10.269-10.607 13.433-14.08 13.433-3.474 0-12.258-3.164-14.08-13.434z" opacity=".541"/><path d="M19.844 2.037c-5.953 0-14.08 5.976-14.08 18.922 0 10.442 7.34 16.692 14.08 16.692s14.08-6.25 14.08-16.692c0-12.946-8.127-18.922-14.08-18.922z" fill="none" stroke="#000" stroke-width="1.058"/></svg>