<svg xmlns="http://www.w3.org/2000/svg" viewBox="0 0 39.687 39.687"><path d="M19.844 259.35c-5.953 0-14.08 5.976-14.08 18.922 0 10.441 7.34 16.691 14.08 16.691s14.08-6.25 14.08-16.691c0-12.946-8.127-18.923-14.08-18.923z" transform="translate(0 -257.313)" fill="#22152e" fill-opacity="1" stroke="none" stroke-width="1.05833328" stroke-linecap="butt" stroke-linejoin="miter" stroke-miterlimit="4" stroke-dasharray="none" stroke-opacity="1"/><path d="m54.17 13.629-8.461 6.44L62.756 31.56l30.808-5.43 11.493 9.469 11.615-1.893-8.586-11.238-3.787 1.136-8.082-6.314-29.799 4.924-12.248-8.586zm-1.01 24.117 32.828 20.33 27.78-6.945 13.384 16.92-3.408-17.803-10.355-8.965-30.051 6.692L53.16 37.746zm-21.088 8.461-4.924 2.652-3.662 13.51 6.06-4.545 26.392 11.239 19.193-.127 19.95 8.207-21.34-18.436-18.434.127-23.235-12.627zm40.912 34.346L38.008 83.96l31.06 4.799 27.655 16.92 29.42-6.44 1.388-9.47-26.515 4.671-28.032-13.888zM22.223 91.158l1.39 9.344 22.602-2.147-23.992-7.197zm24.37 21.97-14.52 3.915 7.827 9.723 3.032-2.65 17.804 12.626 21.971-2.146 7.197 4.924 3.409-1.895-9.596-11.111-19.32 2.021-17.803-15.406zm33.462 1.265 25.632 16.793 6.44-6.692-32.072-10.101z" transform="scale(.26458)" fill="#dd1f1b" stroke="none" stroke-width="1px" stroke-linecap="butt" stroke-linejoin="miter" stroke-opacity="1" fill-opacity="1"/><path d="M19.844 259.35c-8.886 0-14.08 9.48-14.08 18.922 0 0 1.718-16.918 14.08-16.918s14.08 16.918 14.08 16.918c0-9.442-5.195-18.923-14.08-18.923z" transform="translate(0 -257.313)" opacity=".23800001" fill="#fff" fill-opacity="1" stroke="none" stroke-width=".26458332px" stroke-linecap="butt" stroke-linejoin="miter" stroke-opacity="1"/><path d="M5.764 278.272c.25 12.682 10.938 16.691 14.08 16.691 3.141 0 13.83-4.009 14.08-16.691-1.822 10.27-10.607 13.433-14.08 13.433-3.474 0-12.258-3.164-14.08-13.433z" transform="translate(0 -257.313)" opacity=".54100001" fill="#000" stroke="none" stroke-width=".26458332px" stroke-linecap="butt" stroke-linejoin="miter" stroke-opacity="1"/><path d="M19.844 259.35c-5.953 0-14.08 5.976-14.08 18.922 0 10.441 7.34 16.691 14.08 16.691s14.08-6.25 14.08-16.691c0-12.946-8.127-18.923-14.08-18.923z" transform="translate(0 -257.313)" fill="none" stroke="#000" stroke-width="1.05833328" stroke-linecap="butt" stroke-linejoin="miter" stroke-miterlimit="4" stroke-dasharray="none" stroke-opacity="1"/></svg>