<svg xmlns="http://www.w3.org/2000/svg" viewBox="0 0 39.687 39.687"><g transform="translate(0 -257.313)"><circle cx="19.844" cy="277.156" r="17.481" fill="#1b61b8" stroke="#000" stroke-width="1.058" stroke-linecap="round" stroke-linejoin="round"/><path d="m31.311 265.423-9.685.189-.047 2.551 9.685 1.323zm-20.646 1.323-3.45 2.835 3.308 4.016 3.024-3.119zm7.512.85-8.93 8.883-2.268-2.126-1.7 2.22 3.495 4.11 3.78-3.401 2.08 2.41-4.064 4.346 4.961 6.803 2.646-2.03-3.733-4.159 3.874-3.78 4.3 3.78 5.953-4.866-2.362-2.22-4.016 2.787-6.095-6.993 1.984-1.984 2.34 2.339 1.936-1.937zm13.182 4.914-7.087.425v2.031l7.229.899zm.047 10.678-5.48.614v1.984l5.527.473z" fill="#fff"/></g></svg>