<svg xmlns="http://www.w3.org/2000/svg" viewBox="0 0 39.687 39.687"><g transform="translate(0 -257.313)"><circle cx="19.844" cy="277.156" r="17.481" fill="#b9362f" stroke="#000" stroke-width="1.058" stroke-linecap="round" stroke-linejoin="round"/><path d="m13.249 267.038-5.112 5.246.234.567 6.214 4.611 2.973 4.811v.568l-4.209 9.421h3.875l1.97-6.636.65-.39.65.39 1.97 6.636h3.875l-4.21-9.421v-.568l2.974-4.811 6.214-4.61.234-.568-5.112-5.246-2.071 1.504 2.606 3.207-.669.501-2.238-.133-1.503 1.202-.3.836-.703.334h-3.435l-.701-.334-.301-.836-1.503-1.202-2.239.133-.668-.5 2.606-3.208z" fill="#fff"/><path d="M19.053 268.63c-.508 0-1.467.839-1.442 1.476l.095 2.41c.038.967 1.04 1.322 1.335 1.322h1.606c.296 0 1.297-.355 1.335-1.322l.094-2.41c.025-.637-.933-1.476-1.44-1.476h-.792zm.791-2.28h-.803l-.426-4.3h1.229m-2.41 3.97-2.858-3.308-1.82 1.63 3.52 2.67zm2.41.33h.803l.425-4.3h-1.228m2.409 3.97 2.859-3.308 1.819 1.63-3.52 2.67z" fill="#fff"/></g></svg>