<svg xmlns="http://www.w3.org/2000/svg" viewBox="0 0 39.687 39.687"><path d="M19.844 2.037c-5.953 0-14.08 5.977-14.08 18.922 0 10.442 7.34 16.692 14.08 16.692s14.08-6.25 14.08-16.692c0-12.945-8.127-18.922-14.08-18.922z" fill="#585c32"/><path d="M17.958 2.242c-.96.188-1.941.506-2.916.98a2.238 1.82 0 0 0-.023.041 2.238 1.82 0 0 0-.07.173 2.238 1.82 0 0 0-.05.178 2.238 1.82 0 0 0-.027.18 2.238 1.82 0 0 0-.005.13 2.238 1.82 0 0 0 .011.181 2.238 1.82 0 0 0 .033.18 2.238 1.82 0 0 0 .056.176 2.238 1.82 0 0 0 .077.171 2.238 1.82 0 0 0 .097.164 2.238 1.82 0 0 0 .116.156 2.238 1.82 0 0 0 .136.144 2.238 1.82 0 0 0 .152.134 2.238 1.82 0 0 0 .168.12 2.238 1.82 0 0 0 .183.105 2.238 1.82 0 0 0 .193.09 2.238 1.82 0 0 0 .205.075 2.238 1.82 0 0 0 .212.058 2.238 1.82 0 0 0 .219.04 2.238 1.82 0 0 0 .221.022 2.238 1.82 0 0 0 .16.004 2.238 1.82 0 0 0 .223-.009 2.238 1.82 0 0 0 .221-.027 2.238 1.82 0 0 0 .217-.045 2.238 1.82 0 0 0 .21-.062 2.238 1.82 0 0 0 .202-.08 2.238 1.82 0 0 0 .19-.095 2.238 1.82 0 0 0 .178-.11 2.238 1.82 0 0 0 .164-.124 2.238 1.82 0 0 0 .148-.137 2.238 1.82 0 0 0 .13-.148 2.238 1.82 0 0 0 .111-.158 2.238 1.82 0 0 0 .092-.166 2.238 1.82 0 0 0 .07-.172 2.238 1.82 0 0 0 .049-.178 2.238 1.82 0 0 0 .027-.181 2.238 1.82 0 0 0 .006-.129 2.238 1.82 0 0 0-.012-.182 2.238 1.82 0 0 0-.033-.18 2.238 1.82 0 0 0-.056-.176 2.238 1.82 0 0 0-.076-.17 2.238 1.82 0 0 0-.097-.165 2.238 1.82 0 0 0-.118-.155 2.238 1.82 0 0 0-.135-.145 2.238 1.82 0 0 0-.153-.133 2.238 1.82 0 0 0-.167-.12 2.238 1.82 0 0 0-.183-.106 2.238 1.82 0 0 0-.194-.09 2.238 1.82 0 0 0-.162-.06zm6.27.795a2.238 1.82 0 0 0-.001.006 2.238 1.82 0 0 0-.006.129 2.238 1.82 0 0 0 .012.182 2.238 1.82 0 0 0 .033.18 2.238 1.82 0 0 0 .056.176 2.238 1.82 0 0 0 .076.17 2.238 1.82 0 0 0 .097.165 2.238 1.82 0 0 0 .117.155 2.238 1.82 0 0 0 .136.145 2.238 1.82 0 0 0 .152.133 2.238 1.82 0 0 0 .168.12 2.238 1.82 0 0 0 .183.106 2.238 1.82 0 0 0 .193.09 2.238 1.82 0 0 0 .205.075 2.238 1.82 0 0 0 .212.057 2.238 1.82 0 0 0 .219.04 2.238 1.82 0 0 0 .222.022 2.238 1.82 0 0 0 .158.004 2.238 1.82 0 0 0 .223-.009 2.238 1.82 0 0 0 .222-.027 2.238 1.82 0 0 0 .216-.045 2.238 1.82 0 0 0 .114-.033 13.781 13.781 0 0 0-3.007-1.841zm-11.702 1.78c-1.829 1.44-3.495 3.446-4.715 6.063a4.176 4.176 0 0 0 .202.33 4.176 4.176 0 0 0 .253.331 4.176 4.176 0 0 0 .284.306 4.176 4.176 0 0 0 .314.275 4.176 4.176 0 0 0 .34.243 4.176 4.176 0 0 0 .361.208 4.176 4.176 0 0 0 .381.17 4.176 4.176 0 0 0 .397.132 4.176 4.176 0 0 0 .407.091 4.176 4.176 0 0 0 .414.05 4.176 4.176 0 0 0 .295.011 4.176 4.176 0 0 0 .417-.02 4.176 4.176 0 0 0 .413-.063 4.176 4.176 0 0 0 .404-.103 4.176 4.176 0 0 0 .393-.144 4.176 4.176 0 0 0 .375-.181 4.176 4.176 0 0 0 .356-.219 4.176 4.176 0 0 0 .333-.252 4.176 4.176 0 0 0 .305-.284 4.176 4.176 0 0 0 .275-.314 4.176 4.176 0 0 0 .243-.34 4.176 4.176 0 0 0 .208-.362 4.176 4.176 0 0 0 .17-.38 4.176 4.176 0 0 0 .132-.397 4.176 4.176 0 0 0 .091-.407 4.176 4.176 0 0 0 .05-.415 4.176 4.176 0 0 0 .011-.295 4.176 4.176 0 0 0-.02-.417 4.176 4.176 0 0 0-.063-.412 4.176 4.176 0 0 0-.103-.405 4.176 4.176 0 0 0-.143-.392 4.176 4.176 0 0 0-.182-.376 4.176 4.176 0 0 0-.218-.356 4.176 4.176 0 0 0-.253-.332 4.176 4.176 0 0 0-.284-.306 4.176 4.176 0 0 0-.314-.275 4.176 4.176 0 0 0-.34-.243 4.176 4.176 0 0 0-.362-.208 4.176 4.176 0 0 0-.38-.17 4.176 4.176 0 0 0-.397-.132 4.176 4.176 0 0 0-.05-.01zm11.06 1.228a3.34 3.34 0 0 0-.333.017 3.34 3.34 0 0 0-.33.05 3.34 3.34 0 0 0-.324.082 3.34 3.34 0 0 0-.314.115 3.34 3.34 0 0 0-.3.145 3.34 3.34 0 0 0-.285.175 3.34 3.34 0 0 0-.266.202 3.34 3.34 0 0 0-.244.227 3.34 3.34 0 0 0-.22.251 3.34 3.34 0 0 0-.195.272 3.34 3.34 0 0 0-.166.29 3.34 3.34 0 0 0-.136.304 3.34 3.34 0 0 0-.105.318 3.34 3.34 0 0 0-.074.325 3.34 3.34 0 0 0-.04.332 3.34 3.34 0 0 0-.008.236 3.34 3.34 0 0 0 .016.333 3.34 3.34 0 0 0 .05.33 3.34 3.34 0 0 1 0 .001 3.34 3.34 0 0 0 .083.324 3.34 3.34 0 0 0 .114.313 3.34 3.34 0 0 0 .146.3 3.34 3.34 0 0 0 .174.285 3.34 3.34 0 0 0 .202.266 3.34 3.34 0 0 0 .228.245 3.34 3.34 0 0 0 .25.22 3.34 3.34 0 0 0 .273.194 3.34 3.34 0 0 0 .289.167 3.34 3.34 0 0 0 .305.136 3.34 3.34 0 0 0 .317.105 3.34 3.34 0 0 0 .326.073 3.34 3.34 0 0 0 .332.04 3.34 3.34 0 0 0 .236.009 3.34 3.34 0 0 0 .333-.017 3.34 3.34 0 0 0 .33-.05 3.34 3.34 0 0 0 .324-.082 3.34 3.34 0 0 0 .314-.115 3.34 3.34 0 0 0 .3-.145 3.34 3.34 0 0 0 .285-.175 3.34 3.34 0 0 0 .266-.202 3.34 3.34 0 0 0 .244-.228 3.34 3.34 0 0 0 .22-.25 3.34 3.34 0 0 0 .195-.272 3.34 3.34 0 0 0 .166-.29 3.34 3.34 0 0 0 .137-.304 3.34 3.34 0 0 0 .105-.318 3.34 3.34 0 0 0 .073-.325 3.34 3.34 0 0 0 .04-.332 3.34 3.34 0 0 0 .009-.236 3.34 3.34 0 0 0-.017-.333 3.34 3.34 0 0 0-.05-.33 3.34 3.34 0 0 0 0-.001 3.34 3.34 0 0 0-.083-.323 3.34 3.34 0 0 0-.114-.314 3.34 3.34 0 0 0-.145-.3 3.34 3.34 0 0 0-.175-.285 3.34 3.34 0 0 0-.202-.266 3.34 3.34 0 0 0-.228-.245 3.34 3.34 0 0 0-.25-.22 3.34 3.34 0 0 0-.272-.194 3.34 3.34 0 0 0-.29-.167 3.34 3.34 0 0 0-.305-.136 3.34 3.34 0 0 0-.317-.105 3.34 3.34 0 0 0-.325-.073 3.34 3.34 0 0 0-.332-.04 3.34 3.34 0 0 0-.236-.009zm6.85 3.073a1.87 1.87 0 0 0-.187.01 1.87 1.87 0 0 0-.185.028 1.87 1.87 0 0 0-.182.046 1.87 1.87 0 0 0-.175.064 1.87 1.87 0 0 0-.169.081 1.87 1.87 0 0 0-.159.098 1.87 1.87 0 0 0-.149.114 1.87 1.87 0 0 0-.137.127 1.87 1.87 0 0 0-.123.14 1.87 1.87 0 0 0-.109.153 1.87 1.87 0 0 0-.093.162 1.87 1.87 0 0 0-.076.17 1.87 1.87 0 0 0-.06.178 1.87 1.87 0 0 0-.04.182 1.87 1.87 0 0 0-.023.186 1.87 1.87 0 0 0-.004.133 1.87 1.87 0 0 0 .009.186 1.87 1.87 0 0 0 .028.185 1.87 1.87 0 0 0 .046.181 1.87 1.87 0 0 0 .064.176 1.87 1.87 0 0 0 .082.169 1.87 1.87 0 0 0 .098.159 1.87 1.87 0 0 0 .113.149 1.87 1.87 0 0 0 .127.137 1.87 1.87 0 0 0 .14.123 1.87 1.87 0 0 0 .153.109 1.87 1.87 0 0 0 .162.093 1.87 1.87 0 0 0 .17.076 1.87 1.87 0 0 0 .178.059 1.87 1.87 0 0 0 .183.04 1.87 1.87 0 0 0 .186.024 1.87 1.87 0 0 0 .131.004 1.87 1.87 0 0 0 .187-.01 1.87 1.87 0 0 0 .185-.027 1.87 1.87 0 0 0 .181-.047 1.87 1.87 0 0 0 .176-.064 1.87 1.87 0 0 0 .168-.08 1.87 1.87 0 0 0 .16-.099 1.87 1.87 0 0 0 .148-.113 1.87 1.87 0 0 0 .137-.127 1.87 1.87 0 0 0 .124-.14 1.87 1.87 0 0 0 .108-.153 1.87 1.87 0 0 0 .093-.162 1.87 1.87 0 0 0 .077-.171 1.87 1.87 0 0 0 .01-.029 18.803 18.803 0 0 0-1.203-2.435 1.87 1.87 0 0 0-.05-.016 1.87 1.87 0 0 0-.182-.041 1.87 1.87 0 0 0-.186-.023 1.87 1.87 0 0 0-.133-.005zm-23.357 3.58c-.725 2.067-1.171 4.461-1.272 7.164a3.642 3.642 0 0 0 .316.038 3.642 3.642 0 0 0 .258.01 3.642 3.642 0 0 0 .364-.019 3.642 3.642 0 0 0 .36-.054 3.642 3.642 0 0 0 .352-.09 3.642 3.642 0 0 0 .342-.125 3.642 3.642 0 0 0 .328-.159 3.642 3.642 0 0 0 .31-.19 3.642 3.642 0 0 0 .29-.22 3.642 3.642 0 0 0 .266-.248 3.642 3.642 0 0 0 .24-.273 3.642 3.642 0 0 0 .212-.296 3.642 3.642 0 0 0 .181-.316 3.642 3.642 0 0 0 .15-.332 3.642 3.642 0 0 0 .114-.346 3.642 3.642 0 0 0 .08-.355 3.642 3.642 0 0 0 .043-.361 3.642 3.642 0 0 0 .01-.258 3.642 3.642 0 0 0-.018-.364 3.642 3.642 0 0 0-.055-.36 3.642 3.642 0 0 0-.09-.352 3.642 3.642 0 0 0-.125-.342 3.642 3.642 0 0 0-.158-.328 3.642 3.642 0 0 0-.19-.31 3.642 3.642 0 0 0-.221-.29 3.642 3.642 0 0 0-.248-.267 3.642 3.642 0 0 0-.274-.24 3.642 3.642 0 0 0-.296-.211 3.642 3.642 0 0 0-.315-.182 3.642 3.642 0 0 0-.333-.148 3.642 3.642 0 0 0-.345-.115 3.642 3.642 0 0 0-.276-.062zm12.431.396a7.317 7.317 0 0 0-.73.037 7.317 7.317 0 0 0-.723.109 7.317 7.317 0 0 0-.709.18 7.317 7.317 0 0 0-.686.252 7.317 7.317 0 0 0-.66.318 7.317 7.317 0 0 0-.623.382 7.317 7.317 0 0 0-.582.443 7.317 7.317 0 0 0-.535.498 7.317 7.317 0 0 0-.482.55 7.317 7.317 0 0 0-.426.595 7.317 7.317 0 0 0-.364.634 7.317 7.317 0 0 0-.299.668 7.317 7.317 0 0 0-.23.694 7.317 7.317 0 0 0-.16.713 7.317 7.317 0 0 0-.089.726 7.317 7.317 0 0 0-.018.518 7.317 7.317 0 0 0 .037.73 7.317 7.317 0 0 0 .109.723 7.317 7.317 0 0 0 .18.709 7.317 7.317 0 0 0 .252.687 7.317 7.317 0 0 0 .318.658 7.317 7.317 0 0 0 .382.624 7.317 7.317 0 0 0 .443.582 7.317 7.317 0 0 0 .498.535 7.317 7.317 0 0 0 .55.483 7.317 7.317 0 0 0 .595.425 7.317 7.317 0 0 0 .634.364 7.317 7.317 0 0 0 .667.299 7.317 7.317 0 0 0 .694.23 7.317 7.317 0 0 0 .714.16 7.317 7.317 0 0 0 .726.089 7.317 7.317 0 0 0 .517.018 7.317 7.317 0 0 0 .73-.037 7.317 7.317 0 0 0 .001 0 7.317 7.317 0 0 0 .723-.109 7.317 7.317 0 0 0 .709-.18 7.317 7.317 0 0 0 .687-.251 7.317 7.317 0 0 0 .658-.319 7.317 7.317 0 0 0 .623-.382 7.317 7.317 0 0 0 .583-.442 7.317 7.317 0 0 0 .535-.499 7.317 7.317 0 0 0 .483-.55 7.317 7.317 0 0 0 .425-.594 7.317 7.317 0 0 0 .364-.635 7.317 7.317 0 0 0 .3-.667 7.317 7.317 0 0 0 .23-.694 7.317 7.317 0 0 0 .16-.714 7.317 7.317 0 0 0 .088-.726 7.317 7.317 0 0 0 .018-.517 7.317 7.317 0 0 0-.036-.73 7.317 7.317 0 0 0 0-.001 7.317 7.317 0 0 0-.11-.723 7.317 7.317 0 0 0-.18-.709 7.317 7.317 0 0 0-.251-.686 7.317 7.317 0 0 0-.318-.66 7.317 7.317 0 0 0-.383-.622 7.317 7.317 0 0 0-.443-.583 7.317 7.317 0 0 0-.498-.535 7.317 7.317 0 0 0-.55-.482 7.317 7.317 0 0 0-.594-.426 7.317 7.317 0 0 0-.634-.364 7.317 7.317 0 0 0-.668-.299 7.317 7.317 0 0 0-.694-.23 7.317 7.317 0 0 0-.714-.16 7.317 7.317 0 0 0-.726-.089 7.317 7.317 0 0 0-.518-.018zm13.03.936a4.71 4.71 0 0 0-.47.023 4.71 4.71 0 0 0-.466.07 4.71 4.71 0 0 0-.456.117 4.71 4.71 0 0 0-.442.161 4.71 4.71 0 0 0-.424.205 4.71 4.71 0 0 0-.402.246 4.71 4.71 0 0 0-.375.285 4.71 4.71 0 0 0-.344.321 4.71 4.71 0 0 0-.311.354 4.71 4.71 0 0 0-.274.383 4.71 4.71 0 0 0-.234.408 4.71 4.71 0 0 0-.192.43 4.71 4.71 0 0 0-.15.447 4.71 4.71 0 0 0-.102.46 4.71 4.71 0 0 0-.057.467 4.71 4.71 0 0 0-.012.333 4.71 4.71 0 0 0 .024.47 4.71 4.71 0 0 0 .07.466 4.71 4.71 0 0 0 .117.457 4.71 4.71 0 0 0 .161.442 4.71 4.71 0 0 0 .205.424 4.71 4.71 0 0 0 .247.401 4.71 4.71 0 0 0 .284.375 4.71 4.71 0 0 0 .321.345 4.71 4.71 0 0 0 .354.31 4.71 4.71 0 0 0 .383.274 4.71 4.71 0 0 0 .408.235 4.71 4.71 0 0 0 .43.192 4.71 4.71 0 0 0 .447.148 4.71 4.71 0 0 0 .46.103 4.71 4.71 0 0 0 .467.057 4.71 4.71 0 0 0 .333.012 4.71 4.71 0 0 0 .47-.024 4.71 4.71 0 0 0 .466-.07 4.71 4.71 0 0 0 .307-.079c.083-.75.14-1.518.14-2.32 0-2.576-.332-4.865-.895-6.898a4.71 4.71 0 0 0-.155-.018 4.71 4.71 0 0 0-.333-.012zM9.288 21.079a2.238 2.238 0 0 0-.223.011 2.238 2.238 0 0 0-.222.033 2.238 2.238 0 0 0-.217.056 2.238 2.238 0 0 0-.21.077 2.238 2.238 0 0 0-.202.097 2.238 2.238 0 0 0-.19.116 2.238 2.238 0 0 0-.178.136 2.238 2.238 0 0 0-.164.152 2.238 2.238 0 0 0-.148.169 2.238 2.238 0 0 0-.13.182 2.238 2.238 0 0 0-.111.193 2.238 2.238 0 0 0-.091.205 2.238 2.238 0 0 0-.071.212 2.238 2.238 0 0 0-.05.219 2.238 2.238 0 0 0-.026.222 2.238 2.238 0 0 0-.006.158 2.238 2.238 0 0 0 .012.224 2.238 2.238 0 0 0 .033.221 2.238 2.238 0 0 0 .055.217 2.238 2.238 0 0 0 .077.21 2.238 2.238 0 0 0 .098.202 2.238 2.238 0 0 0 .116.19 2.238 2.238 0 0 0 .136.178 2.238 2.238 0 0 0 .152.164 2.238 2.238 0 0 0 .168.148 2.238 2.238 0 0 0 .183.13 2.238 2.238 0 0 0 .193.111 2.238 2.238 0 0 0 .204.092 2.238 2.238 0 0 0 .213.07 2.238 2.238 0 0 0 .218.049 2.238 2.238 0 0 0 .223.027 2.238 2.238 0 0 0 .158.006 2.238 2.238 0 0 0 .223-.012 2.238 2.238 0 0 0 .222-.033 2.238 2.238 0 0 0 .216-.056 2.238 2.238 0 0 0 .21-.076 2.238 2.238 0 0 0 .202-.098 2.238 2.238 0 0 0 .19-.117 2.238 2.238 0 0 0 .179-.135 2.238 2.238 0 0 0 .163-.152 2.238 2.238 0 0 0 .148-.168 2.238 2.238 0 0 0 .13-.183 2.238 2.238 0 0 0 .112-.194 2.238 2.238 0 0 0 .091-.204 2.238 2.238 0 0 0 .07-.212 2.238 2.238 0 0 0 .05-.219 2.238 2.238 0 0 0 .026-.222 2.238 2.238 0 0 0 .006-.158 2.238 2.238 0 0 0-.011-.223 2.238 2.238 0 0 0-.034-.221 2.238 2.238 0 0 0-.055-.217 2.238 2.238 0 0 0-.077-.21 2.238 2.238 0 0 0-.097-.202 2.238 2.238 0 0 0-.117-.19 2.238 2.238 0 0 0-.135-.179 2.238 2.238 0 0 0-.153-.163 2.238 2.238 0 0 0-.168-.148 2.238 2.238 0 0 0-.182-.13 2.238 2.238 0 0 0-.194-.112 2.238 2.238 0 0 0-.204-.09 2.238 2.238 0 0 0-.212-.072 2.238 2.238 0 0 0-.219-.049 2.238 2.238 0 0 0-.222-.026 2.238 2.238 0 0 0-.158-.006zm20.446 4.376c-.31 0-.621.04-.93.116-.31.075-.617.185-.915.325-.298.14-.588.31-.864.504a6.213 6.213 0 0 0-1.44 1.417 5.443 5.443 0 0 0-.507.852c-.14.294-.25.597-.322.904a3.677 3.677 0 0 0-.1.927 5.3 5.3 0 0 0 .121 1.028 4.6 4.6 0 0 0 .3.903 4.21 4.21 0 0 0 1.753 1.919c.251.145.517.266.795.364.035.013.074.017.11.029 2.395-1.891 4.37-4.655 5.403-8.174-.091-.085-.171-.179-.272-.253a3.72 3.72 0 0 0-.65-.382 4.69 4.69 0 0 0-.75-.268 6.714 6.714 0 0 0-1.732-.21zm-18.71 1.57c-.308 0-.598.029-.869.083-.27.054-.521.134-.753.238a3.14 3.14 0 0 0-1.16.89c-.154.19-.289.4-.405.626-.081.159-.14.336-.202.51a15.602 15.602 0 0 0 4.39 5.428c.366-.016.745-.017 1.077-.07.268-.043.523-.1.763-.177.24-.077.463-.172.667-.29a2.47 2.47 0 0 0 .98-1.012c.118-.225.21-.48.277-.77a4.92 4.92 0 0 0 .113-.979 3.66 3.66 0 0 0-.092-.902 3.897 3.897 0 0 0-.298-.84 4.36 4.36 0 0 0-.476-.76 4.877 4.877 0 0 0-.624-.663 5.25 5.25 0 0 0-1.574-.96 5.173 5.173 0 0 0-.891-.26 4.789 4.789 0 0 0-.922-.091zm10.224 4.043a2.706 2.706 0 0 0-.27.013 2.706 2.706 0 0 0-.268.041 2.706 2.706 0 0 0-.262.067 2.706 2.706 0 0 0-.254.093 2.706 2.706 0 0 0-.243.117 2.706 2.706 0 0 0-.231.142 2.706 2.706 0 0 0-.215.164 2.706 2.706 0 0 0-.198.184 2.706 2.706 0 0 0-.179.203 2.706 2.706 0 0 0-.157.22 2.706 2.706 0 0 0-.135.235 2.706 2.706 0 0 0-.11.247 2.706 2.706 0 0 0-.085.256 2.706 2.706 0 0 0-.06.264 2.706 2.706 0 0 0-.032.269 2.706 2.706 0 0 0-.007.191 2.706 2.706 0 0 0 .013.27 2.706 2.706 0 0 0 .04.268 2.706 2.706 0 0 0 .068.262 2.706 2.706 0 0 0 .092.254 2.706 2.706 0 0 0 .118.244 2.706 2.706 0 0 0 .141.23 2.706 2.706 0 0 0 .164.216 2.706 2.706 0 0 0 .185.198 2.706 2.706 0 0 0 .203.178 2.706 2.706 0 0 0 .22.158 2.706 2.706 0 0 0 .234.134 2.706 2.706 0 0 0 .247.11 2.706 2.706 0 0 0 .257.086 2.706 2.706 0 0 0 .264.06 2.706 2.706 0 0 0 .269.032 2.706 2.706 0 0 0 .19.006 2.706 2.706 0 0 0 .271-.013 2.706 2.706 0 0 0 .267-.04 2.706 2.706 0 0 0 .263-.067 2.706 2.706 0 0 0 .253-.093 2.706 2.706 0 0 0 .244-.118 2.706 2.706 0 0 0 .23-.14 2.706 2.706 0 0 0 .216-.165 2.706 2.706 0 0 0 .198-.184 2.706 2.706 0 0 0 .179-.203 2.706 2.706 0 0 0 .157-.22 2.706 2.706 0 0 0 .135-.235 2.706 2.706 0 0 0 .11-.247 2.706 2.706 0 0 0 .085-.256 2.706 2.706 0 0 0 .06-.264 2.706 2.706 0 0 0 .032-.27 2.706 2.706 0 0 0 .007-.19 2.706 2.706 0 0 0-.013-.271 2.706 2.706 0 0 0-.04-.267 2.706 2.706 0 0 0-.068-.263 2.706 2.706 0 0 0-.092-.254 2.706 2.706 0 0 0-.118-.243 2.706 2.706 0 0 0-.141-.23 2.706 2.706 0 0 0-.164-.216 2.706 2.706 0 0 0-.185-.198 2.706 2.706 0 0 0-.203-.179 2.706 2.706 0 0 0-.22-.157 2.706 2.706 0 0 0-.234-.135 2.706 2.706 0 0 0-.247-.11 2.706 2.706 0 0 0-.257-.085 2.706 2.706 0 0 0-.264-.06 2.706 2.706 0 0 0-.268-.032 2.706 2.706 0 0 0-.192-.007z" fill="#ff4d0d"/><path d="M19.844 2.037c-8.886 0-14.08 9.48-14.08 18.922 0 0 1.718-16.918 14.08-16.918s14.08 16.918 14.08 16.918c0-9.441-5.195-18.922-14.08-18.922z" opacity=".238" fill="#fff"/><path d="M5.764 20.96c.25 12.681 10.938 16.69 14.08 16.69 3.141 0 13.83-4.009 14.08-16.69-1.822 10.269-10.607 13.433-14.08 13.433-3.474 0-12.258-3.164-14.08-13.434z" opacity=".541"/><path d="M19.844 2.037c-5.953 0-14.08 5.976-14.08 18.922 0 10.442 7.34 16.692 14.08 16.692s14.08-6.25 14.08-16.692c0-12.946-8.127-18.922-14.08-18.922z" fill="none" stroke="#000" stroke-width="1.058"/></svg>