<svg xmlns="http://www.w3.org/2000/svg" viewBox="0 0 39.687 39.687"><path d="M19.844 2.037c-5.953 0-14.08 5.976-14.08 18.922 0 10.441 7.34 16.691 14.08 16.691s14.08-6.25 14.08-16.691c0-12.946-8.127-18.923-14.08-18.923z" fill="#2445fe"/><path d="M20.119 1.918c-1.136-.012-2.393.166-2.413.531-.036.65.91 3.013 1.642 3.013.578 0 1.145-1.028 1.299-1.288.153-.26 1.488-1.323 1.264-1.878-.098-.243-.909-.368-1.792-.378zM15.267 4.1c-.545.027-1.737.74-1.294 1.173.473.46 2.327-1.028 1.394-1.17a.531.531 0 0 0-.1-.004zM11.8 5.473s-3.308 3.32-2.823 3.662c.484.342 3.047-.945 3.154-1.713.106-.767-.331-1.949-.331-1.949zm7.527 2.71c-1.57 0-3.09.669-3.074 2.74.017 2.071-.584 3.692-2.388 4.51-1.804.819-2.105 1.787-1.62 3.307.484 1.52 6.678.848 9.37-.97 2.694-1.82 3.615-6.308 2.528-7.371-1.086-1.063-3.82-2.215-4.816-2.215zm7.717.385c-.593 0-1.102.2-1.027.743.075.543.969 1.37 1.629 1.236.66-.133.601-.852.476-1.094-.125-.242-.752-.885-1.078-.885zm-14.999.824a1.174 1.174 0 0 0-.458.074c-.708.263-1.169 2.197-.744 3.401.425 1.205 2.245.166 2.422-.92.09-.548.143-1.314-.148-1.857-.216-.401-.622-.68-1.072-.698zm-5.383 5.093-.532 2.327s.32.591 1.016.213c.697-.378.213-2.008-.484-2.54zm20.157.502a2.13 2.13 0 0 0-.585.054c-1.207.286-1.642 2.256-.839 3.342.804 1.087 2.882 1.323 3.284-.094.401-1.418.121-2.435-.33-2.752-.402-.282-.95-.524-1.53-.55zm4.903 2.651c-.719 0-1.128.618-1.094 1.47.033.852-.426 1.428-1.086 2.046-.66.618-1.01.886-.36 2.414.652 1.529 1.02 3.308 2.615 3.308 1.595 0 1.937-2.587 2.079-5.067.142-2.48-.435-4.17-2.154-4.17zm-24.138 1.02c-1.053 0-2.138 1.82-1.537 2.839.602 1.019 2.79 1.587 3.558 1.654.768.066.785-1.036.618-1.838-.167-.802-1.604-2.656-2.64-2.656zm8.636 2.405c-1.838 0-3.508 1.119-3.207 2.154.3 1.036 1.32 1.704 2.054 1.236.735-.467 2.021-1.336 3.04-1.202 1.02.133 1.604-.418.903-1.236-.702-.819-1.855-.952-2.79-.952zm8.268 1.177c-1.294 0-2.138.334-2.271 1.37-.134 1.036.225 2.548.91 2.497.685-.05.894-1.102 1.144-1.32.251-.217 1.32.285 1.712-.3.393-.585.468-1.211.243-1.595-.226-.385-1.094-.652-1.738-.652zM6.06 23.97s.554 3.603.944 3.792c.39.19 1.382-1.37 1.359-2.208-.024-.84-1.76-1.583-2.303-1.583zm11.48 1.402c-1.17 0-3.843 1.17-3.742 2.44.1 1.269 1.202 1.603 1.286 2.287.083.685-.05.886.434 1.621.485.735 1.337 1.67 2.506 1.77 1.17.1 2.204-.738 2.097-1.907-.106-1.17-1.069-.573-1.21-2.073-.142-1.5.555-1.724.295-2.516-.26-.791-.935-1.622-1.667-1.622zm-7.973 2.626c-.434-.047-1.004 1.205-.673 1.713.33.508.898.283.839-.236-.06-.52.366-.638.39-.886.024-.248-.249-.557-.556-.59zm16.631.213c-.897 0-.744 1.465-1.169 2.044-.425.578-.91 1.83-.118 3.118.792 1.287 2.846 1.228 3.673-.414s-1.145-4.748-2.386-4.748zm-14.374 3.532c-.756 0-1.784.838-1.76 1.145.023.308 4.736 3.816 4.996 3.627.26-.19.094-1.158-.508-1.772-.602-.615-1.642-1.335-1.736-1.784-.095-.449-.307-1.216-.992-1.216z" fill="#ffe81c"/><path d="M19.844 2.037c-8.886 0-14.08 9.48-14.08 18.922 0 0 1.718-16.918 14.08-16.918s14.08 16.918 14.08 16.918c0-9.442-5.195-18.923-14.08-18.923z" opacity=".238" fill="#fff"/><path d="M5.764 20.959c.25 12.682 10.938 16.691 14.08 16.691 3.141 0 13.83-4.009 14.08-16.691-1.822 10.27-10.607 13.433-14.08 13.433-3.474 0-12.258-3.164-14.08-13.433z" opacity=".541"/><path d="M19.844 2.037c-5.953 0-14.08 5.976-14.08 18.922 0 10.441 7.34 16.691 14.08 16.691s14.08-6.25 14.08-16.691c0-12.946-8.127-18.923-14.08-18.923z" fill="none" stroke="#000" stroke-width="1.058"/></svg>