<svg xmlns="http://www.w3.org/2000/svg" viewBox="0 0 39.687 39.687"><path fill="#888" d="M19.844 2.037c-5.953 0-14.08 5.976-14.08 18.922 0 10.441 7.34 16.691 14.08 16.691s14.08-6.25 14.08-16.691c0-12.946-8.127-18.923-14.08-18.923z"/><path fill="#fff" d="M16.902 2.739q1.876-.689 3.484-.612t2.947.689l1.34.612-.191.23-.192.229-1.11-.038-1.11-.038-.497.651-.498.65-.919.115-.918.115-.804-.766-.804-.765-1.11.038-1.11.038-.192-.229-.191-.23zM10.366 7.275l.45-.402.077.536.076.536.335.067.335.067.593-.402q.594-.402 1.043-.612.45-.211.757-.23.306-.019.669.249t.785.823.775.804l.354.248.287-.057q.288-.057.565-.306.278-.249.546-.689t.545-.708q.278-.268.565-.364t.612-.096q.326 0 .689.096.364.096.737.392t.756.795q.383.497.708.717l.326.22.268-.057q.268-.057.564-.335.297-.277.622-.775.326-.498.641-.737.316-.239.622-.22.307.019.757.23.449.21 1.043.612l.593.402.335-.067.335-.067.076-.536.077-.536.45.402q.45.402 1.273 1.742t.851 1.856l.029.517-.766-.306q-.765-.306-1.234-.201l-.469.105-.172.517q-.173.517-.488.861-.316.345-.776.517-.459.172-.937.038t-.977-.574q-.497-.44-.89-.679-.392-.24-.679-.278t-.565.019q-.277.058-.545.211t-.546.469q-.277.316-.564.794t-.689.756-.919.354q-.517.077-.928.039-.412-.039-.718-.192t-.603-.478q-.297-.326-.584-.823-.287-.498-.593-.776-.306-.277-.632-.335-.325-.057-.727.125t-.88.603-.89.66-.756.297q-.345.057-.651 0-.306-.058-.574-.23t-.488-.517-.393-.861l-.172-.517-.469-.105q-.469-.105-1.234.201l-.766.306.029-.517q.028-.516.851-1.856t1.273-1.742M6.423 15.802l.278-.048.402.842q.402.842.804 1.235l.402.392.402-.057q.402-.058.765-.354.364-.297.689-.833.326-.536.708-.842.383-.306.823-.383.441-.076.814-.019t.679.249q.307.191.622.555.316.363.642.899.325.536.669.785t.709.211q.363-.039.727-.307t.727-.765q.364-.498.747-.833t.784-.507q.402-.172.862-.172t.976.172q.517.172.957.507t.804.833.727.765.727.307q.364.038.709-.211.344-.249.669-.785t.642-.899q.315-.364.622-.555.306-.192.679-.249t.814.019.823.383q.382.306.708.842t.66.842.68.383l.344.077.402-.393q.402-.392.861-1.253l.46-.862.306.039.306.038.153.938q.153.937.211 2.009t.019 2.278q-.038 1.206-.163 1.77l-.124.565-.211-.077q-.21-.076-.459-.354t-.536-.756-.603-.708-.66-.21q-.345.019-.728.258-.382.239-.803.699t-.852.698q-.431.239-.871.259-.44.019-.976-.259-.536-.277-1.168-.852-.631-.574-1.119-.813t-.833-.143q-.344.095-.679.373-.335.277-.661.737-.325.459-.65.775-.326.316-.651.488-.326.172-.775.21-.45.039-1.024-.057t-1.177-.459q-.603-.364-1.235-.996-.632-.631-1.11-.909l-.479-.277-.325.076q-.325.077-.708.364t-.823.785q-.44.497-.881.736-.44.24-.88.221-.44-.02-.871-.259-.43-.239-.852-.698-.421-.46-.803-.699t-.728-.258q-.344-.02-.66.21t-.603.708q-.287.479-.536.756-.249.278-.459.354l-.211.077-.124-.565q-.125-.564-.163-1.77t.019-2.278.211-2.009l.153-.938zM19.41 25.41q.478-.029 1.052.105t1.111.479q.535.344 1.033.899t.938.804.823.192q.383-.058.871-.316t1.081-.718q.594-.459 1.053-.651.459-.191.785-.114.325.076.679.373.354.296.737.813l.383.517.545.057q.546.058 1.254-.344l.708-.402-.029.555q-.028.555-.794 2.067-.765 1.512-1.215 2.019l-.45.508-.134-.498-.134-.498-.555-.028q-.555-.029-1.531.411t-1.675.364l-.699-.077-.421-.593q-.421-.593-.784-.852l-.364-.258-.306.076q-.307.077-.747.402-.44.326-1.014.9t-1.091.832q-.517.259-.976.201-.46-.057-.967-.382-.507-.326-1.062-.919t-.976-.852l-.421-.258-.287.076q-.287.077-.584.374-.297.296-.603.813l-.306.517-.641.038q-.642.038-1.618-.402t-1.531-.411l-.555.028-.134.498-.134.498-.45-.527q-.45-.526-1.215-2.076t-.794-2.106l-.029-.555.708.44q.708.441 1.254.402l.545-.038.383-.517q.383-.517.737-.813.354-.297.679-.373t.785.114q.459.192 1.053.651.593.46 1.081.718t.871.316q.383.057.785-.163t.823-.718q.421-.497.823-.842.402-.344.784-.536.383-.191.862-.22M18.855 34.243q.689-.268 1.569-.076.881.191 1.684 1.071l.804.881.804-.306q.804-.307 1.685 0l.88.306-2.067.727q-2.067.727-5.053.574t-4.326-.842l-1.339-.689.842-.191q.842-.192 1.646.115l.804.306.689-.804q.689-.804 1.378-1.072"/><path fill="#fff" d="M19.844 2.037c-8.886 0-14.08 9.48-14.08 18.922 0 0 1.718-16.918 14.08-16.918s14.08 16.918 14.08 16.918c0-9.442-5.195-18.923-14.08-18.923z" opacity=".238"/><path d="M5.764 20.959c.25 12.682 10.938 16.691 14.08 16.691s13.83-4.009 14.08-16.691c-1.822 10.27-10.607 13.433-14.08 13.433S7.586 31.228 5.764 20.959" opacity=".541"/><path fill="none" stroke="#000" stroke-width="1.058" d="M19.844 2.037c-5.953 0-14.08 5.976-14.08 18.922 0 10.441 7.34 16.691 14.08 16.691s14.08-6.25 14.08-16.691c0-12.946-8.127-18.923-14.08-18.923z"/></svg>
