<svg xmlns="http://www.w3.org/2000/svg" viewBox="0 0 39.687 39.687"><path d="M19.844 2.037c-5.953 0-14.08 5.977-14.08 18.922 0 10.442 7.34 16.692 14.08 16.692s14.08-6.25 14.08-16.692c0-12.945-8.127-18.922-14.08-18.922z" fill="#ff4cc5"/><path d="m14.198 3.591-2.103 1.346s2.528 4.134 8.292 3.898C26.15 8.6 29.104 6.45 29.104 6.45l-2.41-2.031s-1.488 1.842-5.858 2.031c-4.37.19-6.638-2.858-6.638-2.858zm-3.331 2.622L9.355 8.244s1.347 6.332 7.607 7.702 11.055-1.866 12.71-2.764c1.653-.898 2.929-.567 2.929-.567l-1.536-3.26s-1.22-.018-2.341.721c-1.389.916-2.441 2.305-7.487 2.492-7.016.26-10.37-6.355-10.37-6.355zM7.796 10.75 6.48 14.497c2.473.802 3.441 10.056 11.793 10.557 8.353.501 10.224-3.04 15.703-3.374l-.134-4.075c-5.312.167-4.978 3.708-12.862 3.708-7.885 0-10.94-9.17-13.185-10.564zm-2.017 7.424.034 5.412c2.372.434 4.677 9.02 11.66 9.42 6.982.402 11.492-3.941 14.766-3.574l1.07-3.24c-5.914-.135-5.547 3.775-14.366 2.806-8.82-.97-9.121-9.956-13.164-10.824zm2.24 11.559c.901 2.672 4.91 7.918 11.825 7.918 6.914 0 10.491-5.446 10.491-5.446-4.11-.535-5.88 4.243-11.76 4.109-5.88-.134-6.915-4.777-10.557-6.581z" fill="#ffbcfb"/><path d="M19.844 2.037c-8.886 0-14.08 9.48-14.08 18.922 0 0 1.718-16.918 14.08-16.918s14.08 16.918 14.08 16.918c0-9.441-5.195-18.922-14.08-18.922z" opacity=".238" fill="#fff"/><path d="M5.764 20.96c.25 12.681 10.938 16.69 14.08 16.69 3.141 0 13.83-4.009 14.08-16.69-1.822 10.269-10.607 13.433-14.08 13.433-3.474 0-12.258-3.164-14.08-13.434z" opacity=".541"/><path d="M19.844 2.037c-5.953 0-14.08 5.976-14.08 18.922 0 10.442 7.34 16.692 14.08 16.692s14.08-6.25 14.08-16.692c0-12.946-8.127-18.922-14.08-18.922z" fill="none" stroke="#000" stroke-width="1.058"/></svg>