<svg xmlns="http://www.w3.org/2000/svg" xml:space="preserve" fill-rule="evenodd" stroke-linejoin="round" stroke-miterlimit="2" clip-rule="evenodd" viewBox="0 0 56 56"><path fill="#000101" d="M14.372 9.342c.488-.537 4.616-5.074 6.486-6.344.913-.621 1.514-1.029 11.414 7.759 3.104 2.756 2.149 17.701.171 18.68-.357.177-.322.16-3.787 3.245-5.078 4.519-6.026 6.228-8.382 4.097-9.311-8.423-10.45-8.033-10.304-11.282.398-8.824-1.568-13.966 4.402-16.155"/><path fill="#accdf6" d="M19.34 7.32c1.935-1.505 1.906-3.006 3.923-1.464 6.89 5.269 8.523 4.979 8.541 13.644.014 7.397-.113 7.755-5.612 12.646-3.671 3.264-4.455 2.972-8.293-.114-7.305-5.871-5.482-7.201-5.397-16.532.03-3.323 2.496-4.426 6.838-8.18"/><path fill="#030304" d="M30.268 40.418c1.41-3.453 2.102-2.904 4.525-5.653 3.32-3.766 4.326-1.961 7.597 1.844 3.058 3.558 3.187 3.435 3.321 3.817 2.022 5.769.214 5.806-4.204 10.081-.174.167-.155.17-2.138 2.853-2.534 3.43-8.513-6.045-8.995-6.808.511-3.073.532-3.037-.106-6.134"/><path fill="#adcef6" d="M43.895 43.501c-.078.714-.349 3.208-4.731 7.629-1.768 1.785-11.187-5.726-5.813-11.763 3.226-3.624 4.289-5.451 7.753-1.51 3.25 3.698 2.633 4.012 2.791 5.644"/><path fill="#3b629e" d="M26.922 21.5c-.07.73-.829 8.577-5.539 7.298-7.307-1.984-4.802-23.368 4.632-13.851 1.73 1.745.781 2.096.907 6.553"/><path fill="#adcff7" d="M23.91 20.502c-.328 6.645-3.338 3.356-3.426 3.003-1.262-5.077 1.87-9.923 3.199-6.084.081.234.017.228.227 3.081"/><path fill="#080a0b" fill-opacity=".7" d="M30.268 40.418c.638 3.097.617 3.061.106 6.134-.275-3.064-.306-2.954-.106-6.134"/></svg>
