<svg xmlns="http://www.w3.org/2000/svg" xml:space="preserve" fill-rule="evenodd" stroke-linejoin="round" stroke-miterlimit="2" clip-rule="evenodd" viewBox="0 0 56 56"><path fill="#020101" d="M27.489 33.028c5.509-2.007 4.538-3.357 4.969-8.53 1.022-12.284-.33-20.057 6.205-14.187 5.206 4.675 7.111 9.856 6.442 20.156-.256 3.939-4.66 9.621-7.893 11.579-3.417 2.07-3.37 2.472-3.43 6.461-.048 3.239-2.429 2.58-10.292 2.466-3.709-.054-2.305-1.84-2.594-5.529-.244-3.106-5.469-2.657-10.241-12.02-.433-.85-1.634-3.207-.768-11.891.819-8.209 8.296-13.249 9.625-13.136 2.455.209 2.573 6.509 2.584 7.114.262 13.962-.359 15.497 5.393 17.517"/><path fill="#6b73b4" d="M19.941 26.424c1.251 7.355 2.084 8.549 9.568 8.184 5.548-.27 3.78-9.671 7.013-9.989 6.314-.623 5.883 1.603 5.894 1.888.185 4.921.423 6.451-4.52 11.39-4.718 4.713-6.568 3.765-6.759 6.569-.046.667.003 1.338-.026 2.006-.133 3.077-6.759 2.074-7.249.875-.747-1.826 1.374-3.243-2.458-5.686-.807-.515-5.992-3.819-8.561-8.354-.467-.824-1.788-8.222.716-8.63.698-.114 4.392-.108 4.907-.041 1.568.206 1.42 1.663 1.475 1.788"/><path fill="#de496b" d="M19.876 19.499c-.206 1.126.606 2.367-2.34 2.488-2.441.099-5.449.43-5.226-1.495.578-4.988 7.171-12.016 7.473-7.038.029.483.006.448.093 6.045"/><path fill="#dd496a" d="M35.036 15.488c-.119-2.844.009-2.982.182-3.168.828-.891.979-1.055 2.009-.418 1.203.744 9.574 10.403 2.271 10.154-3.227-.11-4.729.656-4.496-2.555z"/></svg>
