<svg xmlns="http://www.w3.org/2000/svg" xml:space="preserve" fill-rule="evenodd" stroke-linejoin="round" stroke-miterlimit="2" clip-rule="evenodd" viewBox="0 0 56 56"><path fill="#010101" d="M35.547 49.678c-3.661.802-3.617.916-5.045.937-6.703.097-17.9 1.42-18.555-12.108-.29-6.004 8.381-12.986 9.109-14.281 3.201-5.684 2.631-19.978 8.288-15.501 4.197 3.321-.377 9.948 9.499 20.44 7.603 8.078 4.001 13.237 2.761 16.393-1.362 3.464-5.476 4.039-6.057 4.12"/><path fill="#91ebfe" d="M40.956 39.52c-.069.778 1.794 11.193-18.45 8.915-8.852-.996-10.425-11.07-4.838-16.775 8.862-9.05 6.725-11.076 8.697-19.21.431-1.78 2.628-1.727 2.906.122 1.653 10.98 1.481 11.393 8.947 19.198 2.395 2.504 2.695 7.093 2.738 7.75"/><path fill="#4c94a6" d="M18.969 37.732c.631-.05.875-.785 1.736.389 1.131 1.542 1.169 1.458 2.607 2.756 4.544 2.006 9.447 1.09 11.098-2.454.886-1.901 2.45-.789 1.873 1.036-2.062 6.515-15.663 9.026-17.314-1.727"/><path fill="#92ecfe" d="M18.969 37.732 19.5 36c2.281-3.373 2.907-.457 3.099-.284.116.104 2.165-.622 1.505 3.784l-.792 1.377c-1.438-1.298-1.476-1.214-2.607-2.756-.861-1.174-1.105-.439-1.736-.389"/></svg>
