<svg xmlns="http://www.w3.org/2000/svg" xml:space="preserve" fill-rule="evenodd" stroke-linejoin="round" stroke-miterlimit="2" clip-rule="evenodd" viewBox="0 0 56 56"><path fill="#010100" fill-opacity=".99" d="M31.433 24.934c3.637-.748 12.936-.78 13.154-.542 1.127 1.231-2.945 4.709-7.937 10.242C19.777 53.33 19.259 53.139 17.497 53.028c-7.399-.468-12.269 1.172-8.83-2.384.314-.325 3.62-3.744 3.973-4.012.576-.438.61-.307 1.006-.988.732-1.259 11.075-11.573 11.077-12.111.012-3.035-17.88.782-14.832-2.8C11.6 28.726 31.764 8.591 33.679 6.679c3.435-3.43 6.535-2.661 7.821-2.709.448-.016 7.268-.268 5.347 1.688-1.377 1.404-17.048 17.374-16.855 17.887.235.624 1.206.765 1.441 1.389"/><path fill="#fefd02" d="M19.365 42.369c8.071-8.491 7.97-8.448 9.317-9.722 5.631-5.325-18.473.231-13.438-4.304 1.916-1.726 10.975-11.183 11.918-12.167 8.387-8.756 8.22-9.43 13.408-10.024 7.278-.833-19.817 20.108-14.026 20.129.962.003 10.158.036 12.023-.234 4.872-.706-1.866 5.379-7.778 11.721-10.754 11.537-10.317 13.599-17.428 13.027-2.68-.215 1.654-3.961 6.004-8.426"/></svg>
