<svg xmlns="http://www.w3.org/2000/svg" xml:space="preserve" fill-rule="evenodd" stroke-linejoin="round" stroke-miterlimit="2" clip-rule="evenodd" viewBox="0 0 56 56"><path fill="#010000" d="M8.261 37.613c-.077-.997-2.647-3.522-2.064-11.153.415-5.441 3.453-9.49 3.979-10.19.413-.551 4.082-5.441 6.208-5.969.986-.246 6.652-4.307 14.145-2.949 17.266 3.131 19.843 20.415 17.914 25.135-.84 2.057-2.473 14.219-17.911 17.175-8.819 1.689-18.303-5.167-19.114-7.093-.113-.268-.346-.821-2.129-2.943z"/><path fill="#b7b7b7" d="M43.815 18.304c14.47 26.273-26.006 41.864-34.608 16.292-6.598-19.617 20.11-36.758 34.608-16.292"/><path fill="#fff" d="M19.522 17.092c10.6 2.767-.017 15.009-4.598 7.183-.715-1.221-.671-3.445-.039-4.577 1.428-2.557 1.811-2.188 4.637-2.606"/></svg>
