<svg xmlns="http://www.w3.org/2000/svg" xml:space="preserve" fill-rule="evenodd" stroke-linejoin="round" stroke-miterlimit="2" clip-rule="evenodd" viewBox="0 0 56 56"><path fill-opacity=".99" d="M40.677 17.652c-4.262 4.801-4.105 5.462-2.943 6.572 11.997 11.455 1.287 22.375-6.203 23.488C3.812 51.829 8.423 9.855 40.455 11.9c6.595.421.903 5.013.222 5.752"/><path fill="#fe4901" d="M40.479 15.488c-1.101.929-1.071.853-2.085 1.914-3.94 4.121-7.178 5.83-1.994 8.261 2.365 1.108 7.971 10.396.178 17.265-1.503-3.195 1.735-9.775-3.033-12.498-9.512-5.431-17.509 5.849-9.933 9.826 2.628 1.38 7.945-.607 2.78-2.552-1.791-.673-1.384-3.659 1.091-4.272 6.937-1.719 4.915 9.222 4.778 10.834-3.963 3.875-20.857.726-15.98-15.837 2.344-7.96 11.867-13.064 18.176-14.173 5.227-.918 5.268-.043 6.022 1.232"/><path fill="#521700" d="M36.578 42.928c-.214.204-2.296 2.181-3.078 2.036-.466-.086-.773-.612-1.239-.698.137-1.612 2.159-12.553-4.778-10.834-2.475.613-2.882 3.599-1.091 4.272 5.165 1.945-.152 3.932-2.78 2.552-7.576-3.977.421-15.257 9.933-9.826 4.768 2.723 1.53 9.303 3.033 12.498"/></svg>
