<svg xmlns="http://www.w3.org/2000/svg" viewBox="0 0 39.687 39.687"><g transform="translate(0 -257.313)"><circle cx="19.844" cy="277.156" r="17.481" fill="#5a9326" stroke="#000" stroke-width="1.058" stroke-linecap="round" stroke-linejoin="round"/><path d="m18.108 264.246.567 5.575-5.245 1.134 3.45 4.3-3.497 4.583 5.906.567 2.646 6.189 3.732-5.197 5.386 2.976-.661-5.386 4.205-.661-3.024-4.725 3.024-3.497-5.717-.519-1.134-5.292-4.772 3.072zm-8.552 4.252-.543 1.276-.993 1.087-1.016.614 1.182.283.874 1.064.33 1.582.615-1.677.85-.874 1.417-.543-1.488-.497-.92-1.062zm2.858 9.97-2.433 2.338-2.197-1.157v3.189l-2.693.378 2.693 2.173-.094 2.953 2.15-.897 1.865 2.622 1.04-3.048 3.213.118-1.89-2.338 1.842-2.788-3.07-.213z" fill="#fff"/></g></svg>