<svg xmlns="http://www.w3.org/2000/svg" viewBox="0 0 25.4 25.4"><path d="m11.774 5.812.302 2.975-2.798.605 1.84 2.293-1.865 2.446 3.151.302 1.412 3.302 1.99-2.773 2.874 1.588-.353-2.873 2.244-.353-1.613-2.52 1.613-1.866-3.05-.277-.605-2.823-2.546 1.638zM7.211 8.081l-.29.68-.529.58-.542.328.63.151.467.567.176.845.328-.895.454-.466.756-.29-.794-.265-.492-.567zm1.525 5.318-1.298 1.248-1.172-.617v1.701l-1.437.202 1.437 1.16-.05 1.575 1.147-.48.995 1.4.555-1.626 1.714.063-1.008-1.248.983-1.487-1.639-.113z" fill="#fff"/></svg>