<svg xmlns="http://www.w3.org/2000/svg" viewBox="0 0 39.687 39.687"><path d="M19.844 2.037c-5.953 0-14.08 5.977-14.08 18.922 0 10.442 7.34 16.692 14.08 16.692s14.08-6.25 14.08-16.692c0-12.945-8.127-18.922-14.08-18.922z" fill="#888"/><path d="M18.26 1.866s-4.094 5.148-4.094 17.175c0 12.027 3.126 18.497 3.126 18.497l1.914.33s-2.368-6.867-2.368-17.959c0-11.091 2.463-17.9 2.463-17.9l-1.04-.143zm3.762 0-1.04.142s2.463 6.81 2.463 17.901c0 11.092-2.368 17.96-2.368 17.96l1.913-.331s3.127-6.47 3.127-18.497c0-12.027-4.095-17.175-4.095-17.175zm-9.077 2.67c-3.49 1.998-8.068 9.026-7.065 18.848 1.002 9.822 8.436 12.713 8.436 12.713-2.693-2.74-5.575-7.135-6.379-15.545-.803-8.41 5.008-16.016 5.008-16.016zm14.392 0s5.444 8.308 4.64 16.718c-.802 8.41-3.317 12.102-6.01 14.843 0 0 6.961-2.985 7.964-12.807 1.002-9.823-3.102-16.756-6.594-18.754z" fill="#fff"/><path d="M19.844 2.037c-8.886 0-14.08 9.48-14.08 18.922 0 0 1.718-16.918 14.08-16.918s14.08 16.918 14.08 16.918c0-9.441-5.195-18.922-14.08-18.922z" opacity=".238" fill="#fff"/><path d="M5.764 20.96c.25 12.681 10.938 16.69 14.08 16.69 3.141 0 13.83-4.009 14.08-16.69-1.822 10.269-10.607 13.433-14.08 13.433-3.474 0-12.258-3.164-14.08-13.434z" opacity=".541"/><path d="M19.844 2.037c-5.953 0-14.08 5.976-14.08 18.922 0 10.442 7.34 16.692 14.08 16.692s14.08-6.25 14.08-16.692c0-12.946-8.127-18.922-14.08-18.922z" fill="none" stroke="#000" stroke-width="1.058"/></svg>