<svg xmlns="http://www.w3.org/2000/svg" viewBox="0 0 39.687 39.687"><path d="M19.844 2.037c-5.953 0-14.08 5.976-14.08 18.922 0 10.441 7.34 16.691 14.08 16.691s14.08-6.25 14.08-16.691c0-12.946-8.127-18.923-14.08-18.923z" fill="gray"/><path d="M19.844 2.037c-8.886 0-14.08 9.48-14.08 18.922 0 0 1.718-16.918 14.08-16.918s14.08 16.918 14.08 16.918c0-9.442-5.195-18.923-14.08-18.923z" opacity=".238" fill="#fff"/><path d="M5.764 20.959c.25 12.682 10.938 16.691 14.08 16.691 3.141 0 13.83-4.009 14.08-16.691-1.822 10.27-10.607 13.433-14.08 13.433-3.474 0-12.258-3.164-14.08-13.433z" opacity=".541"/><path d="M19.844 2.037c-5.953 0-14.08 5.976-14.08 18.922 0 10.441 7.34 16.691 14.08 16.691s14.08-6.25 14.08-16.691c0-12.946-8.127-18.923-14.08-18.923z" fill="none" stroke="#000" stroke-width="1.058"/><path d="m10.743 8.982 1.316 6.593 4.11-.044.509-2.203 5.642.251-.25 4.723-6.06 2.006 1.18 6.347 3.957-.26.567-5.669 7.23-.731-.522-10.7zm5.828 20.092-.854 3.563 6.707.146-.49-3.624z" fill="#fff"/></svg>