<svg xmlns="http://www.w3.org/2000/svg" viewBox="0 0 39.687 39.687"><path d="M19.844 2.037c-5.953 0-14.08 5.977-14.08 18.922 0 10.442 7.34 16.692 14.08 16.692s14.08-6.25 14.08-16.692c0-12.945-8.127-18.922-14.08-18.922z" fill="#231d1d"/><path d="M19.257 2.286c-.317.008-.5.03-.5.03s-2.882 3-4.394 4.37-3.59 1.062-5.008 1.89L7.937 10.63c.567-.307 2.363-.59 2.363-.59-1.37 1.347-2.717 1.985-2.717 1.985l-.638 2.29c1.276-.212 4.583-3.732 6.946-5.362 2.362-1.63 6.024-3.142 6.638-3.85.614-.71 2.291-1.654 3.85-1.654-2.02-1.099-4.172-1.187-5.122-1.163zm8.879 3.407s-2.953.213-4.347.638c-1.394.425-8.245 5.717-8.245 5.717s3.379.118 4.394-.142c1.016-.26 3.45-1.393 4.064-1.535.614-.142 5.575 1.157 7.843.945l-1.253-2.528c-.897.095-3.165-.166-4.087-.213-.921-.047-2.74.26-2.74.26s.921-.874 1.276-.992c.354-.118 4.795-.165 4.795-.165l-1.7-1.985zm-2.774 7.513a3.637 3.637 0 0 0-.581.023c-.992.166-2.551 1.441-3.733 1.465-1.18.023-3.236-.402-3.826-.354-.59.047-2.765.921-3.19 1.157-.425.236-3.307.402-3.945.496-.638.095-2.032-.165-2.339-.213-.307-.047-1.346.497-1.346.497l-.354 2.48s1.252-.496 1.559-.52c.307-.023 1.44.284 2.575.284 1.134 0 4.181-1.181 5.457-1.465 1.276-.283 6.402-.52 7.796-1.04 1.394-.52 4.606-.873 5.457-.448.85.425 4.488.449 4.488.449l.118.52s-.94 1.271-2.15 1.913c1.07.38 2.15.33 2.15.33l.402-1.96-.969-3.048c-1.157.02-5.77-.537-7.57-.566zm2.526 4.998c-2.28.038-5.221.547-6.461 1.309-1.654 1.016-2.15 2.103-2.646 2.41-.496.307-4.843 2.787-5.292 3.142-.449.354-4.181.703-5.953-1.702.709-.118 2.599.497 4.323.072 1.725-.425 6.946-4.489 6.946-4.489s-1.702.449-3.095.402c-1.394-.048-3.284 1.039-4.56 1.204-1.275.166-3.496.757-3.969.898-.472.142-1.417-.49-1.417-.49l.567 3.892s1.984 1.653 3.922 1.819c1.937.165 3.638.165 3.638.165s-1.205.685-2.197.945c-.992.26-3.591 0-4.772-.425l1.393 3.307s2.174.379 4.489-.118c2.315-.496 3.685-2.74 4.134-3.567.449-.827 3.685-1.96 4.134-2.599.449-.637 1.488-2.764 3.709-3.732 2.22-.969 5.08-2.315 5.08-2.315-.526-.1-1.213-.14-1.973-.128zm1.127 2.619c-1.825-.036-4.764 3.74-5.273 4.36-.544.66-5.386 3.165-5.623 3.614-.236.45-1.417 2.504-3.85 3.237-2.434.732-4.725.377-4.725.377l2.197 2.221s3.544-.638 4.748-1.606c1.205-.969 2.693-1.536 3.898-1.441-.449 1.157-3.638 4.157-5.859 4.44l1.56.946s1.512-.426 2.386-.85c.874-.426 2.716-.331 3.661-.875.945-.543 2.244-2.078 3.071-2.22.827-.142 3.402.85 3.402.85l2.339-2.362s-1.961.047-3.591-.685c-.63-.283-1.848-.114-2.577-.162-1.157-.076-1.836-.27-2.69-.43-1.395-.259-1.985-.188-1.985-.188s1.015-.59 2.976-.614c1.961-.024 4.701-1.063 6.615-1.087 1.913-.023 2.787.213 2.787.213l.567-1.63s-1.795.095-3-.354c0 0 1.56-.331 2.622-.756-1.512-.662-4.819-.52-6.307-.071 1.04-1.158 2.953-2.127 4.11-2.221 1.158-.095 3.26.142 3.26.142l.19-2.079s-2.788-.095-4.56-.709a1.13 1.13 0 0 0-.35-.06z" fill="#c5bcb4"/><path d="M19.844 2.037c-8.886 0-14.08 9.48-14.08 18.922 0 0 1.718-16.918 14.08-16.918s14.08 16.918 14.08 16.918c0-9.441-5.195-18.922-14.08-18.922z" opacity=".238" fill="#fff"/><path d="M5.764 20.96c.25 12.681 10.938 16.69 14.08 16.69 3.141 0 13.83-4.009 14.08-16.69-1.822 10.269-10.607 13.433-14.08 13.433-3.474 0-12.258-3.164-14.08-13.434z" opacity=".541"/><path d="M19.844 2.037c-5.953 0-14.08 5.976-14.08 18.922 0 10.442 7.34 16.692 14.08 16.692s14.08-6.25 14.08-16.692c0-12.946-8.127-18.922-14.08-18.922z" fill="none" stroke="#000" stroke-width="1.058"/></svg>