<svg xmlns="http://www.w3.org/2000/svg" viewBox="0 0 39.687 39.687"><path d="M19.844 259.35c-5.953 0-14.08 5.976-14.08 18.922 0 10.441 7.34 16.691 14.08 16.691s14.08-6.25 14.08-16.691c0-12.946-8.127-18.923-14.08-18.923z" transform="translate(0 -257.313)" fill="#22b329" fill-opacity="1" stroke="none" stroke-width="1.05833328" stroke-linecap="butt" stroke-linejoin="miter" stroke-miterlimit="4" stroke-dasharray="none" stroke-opacity="1"/><path d="M72.781 8.64c-1.197.031-1.888.11-1.888.11S59.999 20.089 54.285 25.268c-5.714 5.178-13.57 4.017-18.928 7.142L30 40.178c2.143-1.161 8.928-2.23 8.928-2.23-5.179 5.089-10.268 7.5-10.268 7.5l-2.41 8.66C31.071 53.303 43.571 40 52.5 33.84c8.929-6.16 22.768-11.876 25.09-14.555 2.321-2.678 8.66-6.25 14.553-6.25-7.634-4.152-15.77-4.486-19.362-4.394zm33.559 12.878s-11.162.803-16.43 2.41c-5.268 1.607-31.16 21.607-31.16 21.607s12.768.447 16.607-.535c3.84-.982 13.036-5.267 15.358-5.803 2.321-.535 21.071 4.374 29.642 3.57l-4.732-9.552c-3.393.357-11.965-.626-15.447-.805-3.482-.178-10.356.983-10.356.983s3.481-3.304 4.82-3.75c1.34-.447 18.126-.625 18.126-.625l-6.428-7.5zM95.855 49.912c-.971-.016-1.726.01-2.195.088-3.75.625-9.643 5.446-14.107 5.535-4.465.09-12.231-1.516-14.463-1.338-2.232.179-10.448 3.482-12.055 4.375-1.607.893-12.5 1.518-14.91 1.875s-7.68-.626-8.84-.804c-1.16-.18-5.088 1.875-5.088 1.875l-1.34 9.375s4.732-1.876 5.893-1.965c1.16-.09 5.447 1.072 9.732 1.072 4.286 0 15.804-4.464 20.625-5.535 4.822-1.072 24.197-1.966 29.465-3.93 5.268-1.964 17.411-3.302 20.625-1.695 3.215 1.607 16.963 1.695 16.963 1.695l.447 1.965s-3.553 4.806-8.125 7.232c4.044 1.436 8.125 1.25 8.125 1.25l1.518-7.41-3.66-11.52c-4.375.079-21.808-2.03-28.61-2.14zm9.547 18.89c-8.617.143-19.732 2.069-24.42 4.948-6.25 3.84-8.125 7.947-10 9.107-1.875 1.161-18.303 10.536-20 11.875-1.696 1.34-15.803 2.658-22.5-6.43 2.679-.446 9.822 1.877 16.34.27 6.518-1.607 26.25-16.965 26.25-16.965s-6.43 1.697-11.697 1.518c-5.268-.179-12.411 3.928-17.232 4.553-4.822.625-13.215 2.859-15 3.394-1.786.536-5.358-1.855-5.358-1.855l2.143 14.71s7.5 6.25 14.822 6.876c7.321.625 13.75.625 13.75.625s-4.553 2.59-8.303 3.572c-3.75.982-13.573 0-18.037-1.607l5.268 12.5s8.215 1.43 16.965-.446c8.75-1.875 13.928-10.357 15.625-13.482 1.696-3.125 13.928-7.412 15.625-9.822 1.696-2.411 5.624-10.447 14.017-14.108 8.393-3.66 19.197-8.75 19.197-8.75-1.986-.38-4.582-.53-7.455-.482zm4.26 9.9c-6.898-.139-18.004 14.132-19.93 16.476-2.053 2.5-20.357 11.965-21.25 13.662-.892 1.696-5.358 9.464-14.554 12.232-9.197 2.768-17.856 1.428-17.856 1.428l8.303 8.393s13.394-2.41 17.947-6.07c4.554-3.661 10.177-5.805 14.73-5.448-1.696 4.375-13.749 15.714-22.142 16.785l5.893 3.572s5.716-1.607 9.02-3.214c3.303-1.608 10.266-1.25 13.837-3.303 3.572-2.054 8.483-7.857 11.608-8.393 3.125-.535 12.857 3.213 12.857 3.213l8.84-8.928s-7.412.178-13.572-2.59c-2.382-1.07-6.984-.428-9.739-.609-4.373-.287-6.94-1.02-10.172-1.623-5.267-.982-7.5-.713-7.5-.713s3.84-2.233 11.25-2.322c7.411-.09 17.768-4.018 25-4.107 7.233-.09 10.536.804 10.536.804l2.142-6.162s-6.784.359-11.338-1.338c0 0 5.893-1.25 9.91-2.857-5.714-2.5-18.214-1.964-23.84-.268 3.93-4.375 11.16-8.037 15.536-8.394 4.375-.357 12.322.537 12.322.537l.715-7.858s-10.536-.358-17.233-2.68a4.27 4.27 0 0 0-1.32-.226z" transform="scale(.26458)" fill="#313b16" stroke="none" stroke-width="1px" stroke-linecap="butt" stroke-linejoin="miter" stroke-opacity="1" fill-opacity="1"/><path d="M19.844 259.35c-8.886 0-14.08 9.48-14.08 18.922 0 0 1.718-16.918 14.08-16.918s14.08 16.918 14.08 16.918c0-9.442-5.195-18.923-14.08-18.923z" transform="translate(0 -257.313)" opacity=".23800001" fill="#fff" fill-opacity="1" stroke="none" stroke-width=".26458332px" stroke-linecap="butt" stroke-linejoin="miter" stroke-opacity="1"/><path d="M5.764 278.272c.25 12.682 10.938 16.691 14.08 16.691 3.141 0 13.83-4.009 14.08-16.691-1.822 10.27-10.607 13.433-14.08 13.433-3.474 0-12.258-3.164-14.08-13.433z" transform="translate(0 -257.313)" opacity=".54100001" fill="#000" stroke="none" stroke-width=".26458332px" stroke-linecap="butt" stroke-linejoin="miter" stroke-opacity="1"/><path d="M19.844 259.35c-5.953 0-14.08 5.976-14.08 18.922 0 10.441 7.34 16.691 14.08 16.691s14.08-6.25 14.08-16.691c0-12.946-8.127-18.923-14.08-18.923z" transform="translate(0 -257.313)" fill="none" stroke="#000" stroke-width="1.05833328" stroke-linecap="butt" stroke-linejoin="miter" stroke-miterlimit="4" stroke-dasharray="none" stroke-opacity="1"/></svg>