<svg xmlns="http://www.w3.org/2000/svg" viewBox="0 0 39.687 39.687"><path style="fill:#9a5f3d;fill-opacity:1;stroke:none;stroke-width:1.05833328;stroke-linecap:butt;stroke-linejoin:miter;stroke-miterlimit:4;stroke-dasharray:none;stroke-opacity:1" d="M19.844 259.35c-5.953 0-14.08 5.976-14.08 18.922 0 10.441 7.34 16.691 14.08 16.691s14.08-6.25 14.08-16.691c0-12.946-8.127-18.923-14.08-18.923z" transform="translate(0 -257.313)"/><path style="fill:#deb071;stroke:none;stroke-width:1px;stroke-linecap:butt;stroke-linejoin:miter;stroke-opacity:1;fill-opacity:1" d="m72.605 8.2-11.302 2.652s3.662 4.292 3.283 5.492c-.379 1.2-3.914 4.357-3.914 4.357s6.314.126 6.693 2.399c.379 2.272-1.705 8.837-1.705 8.837s7.64-5.618 8.586-4.923c.947.694.317 6.756.317 6.756s5.365-5.305 7.26-5.368c1.893-.063 6.376 2.905 8.523 3.094-.505-2.399-5.556-7.955-5.62-8.965-.063-1.01 3.41-6.123 3.41-6.123s-6.377 1.893-7.072.504c-.694-1.389 2.653-6.88 2.653-6.88l-4.041-1.579s-2.652 2.84-4.23 2.84c-1.58 0-2.84-3.094-2.84-3.094zm30.872 10.228-.063.316s-.883 3.661-1.64 3.977c-.758.315-4.294-.696-4.294-.696s2.903 3.285 2.84 4.737c-.063 1.452 2.274 5.746 2.274 7.134 1.704-1.767 5.493-4.483 8.713-3.6 3.22.885 3.029.38 3.029.38l-10.86-12.248zm-62.942 6.617-3.66 2.945s-3.66 8.573-1.785 5.805c1.875-2.768 5.669-1.653 7.41-1.697-2.054-1.741-1.965-7.053-1.965-7.053zm11.272 7.994c-.627 3.457 3.52 11.746 2.382 16.008-.96 3.598-3.556 6.03-7.695 8.633 0 0 10.428-.203 11.61 1.79 1.18 1.995-12.432 18.696-12.432 18.696s18.112-4.93 20.685-2.568c2.574 2.36-.02 13.69-.02 13.69s4.61-7.982 7.378-6.968c2.767 1.015 8.87 9.927 14.986 14.846-1.202-7.756-5.868-17.498-5.363-20.402.505-2.905 9.723-2.905 9.723-2.905s-9.217-5.682-9.975-9.091c-.758-3.41 10.984-16.666 10.984-16.666S75.004 52.52 73.867 50.5c-1.136-2.02 2.526-9.47 2.526-9.47-4.323 2.283-8.512 3.156-12.108 2.189-4.26-1.146-9.171-8.994-12.478-10.18zm68.275 9.758s-1.895 4.357-4.42 4.61c0 0 5.746 2.146 5.367 4.04-.379 1.894-5.998 8.524-5.998 8.524s8.017-1.642 8.838-.38c.82 1.263.444 7.513.444 7.513l2.208-4.229-6.439-20.078zM23.906 56.082 21.592 65.4l1.097 22.442c1.268-1.072 2.5.012 3.373.54 1.753 1.061 4.983 6.69 8.5 10.858.212-5.45-1.676-11.328-.945-13.242.73-1.914 8.03-1.445 8.03-1.445s-6.29-5.861-6.354-8.287c-.063-2.427 9.584-8.77 9.584-8.77s-13.09-.658-13.596-2.187c-.506-1.53 4.12-7.135 4.12-7.135-4.207.86-8.498.542-11.495-2.092zm88.158 16.326s-2.841 3.85-4.988 5.176c-2.146 1.326-5.556 3.473-5.556 3.473s3.346 2.209 4.04 3.535c.695 1.326 1.137 4.861 1.137 4.861s2.652-3.156 4.041-3.914c1.39-.758 5.492-.441 5.492-.441s-2.02-2.651-1.894-3.977c.126-1.326-2.082-5.809-2.272-8.713zm14.268 18.436s-2.145 2.904-3.219 3.094c0 0 1.83 2.334.504 3.47-1.326 1.137-4.924 2.147-4.924 2.147s4.988 1.39 5.051 2.841c.063 1.453 2.715-4.544 2.715-4.544l-.127-7.008zm-65.723 2.209s-.569 2.525-1.642 3.914c-1.073 1.389-5.555 1.767-5.555 1.767s2.4 2.336 3.662 3.536c1.263 1.2 1.767 3.978 1.072 5.115 1.074-.695 5.05-1.642 6.25-2.905 1.2-1.262 7.766-2.084 7.766-2.084s-3.913-1.957-6.185-3.472c-2.273-1.515-5.368-5.871-5.368-5.871zm35.86 5.24s1.556 5.24 1.326 8.996c-.217 3.55-6.25 3.063-6.25 3.063s4.04.82 4.924 4.609c.884 3.788-4.797 7.387-4.797 7.387s4.671-1.515 8.017-1.2c3.347.316 0 7.387 0 7.387s2.083-1.389 4.166-2.336c2.084-.947 4.737 2.082 4.737 2.082l9.533-11.111s-4.798.252-5.303-1.516c-.505-1.767 6.944-7.638 6.944-7.638s-9.596 2.336-10.795.127c-1.2-2.21 2.525-6.883 2.525-6.883s-4.168 3.094-6.693 3.283c-2.526.19-8.334-6.25-8.334-6.25zM32.45 110.414c2.652 3.22 4.23 9.66 5.809 14.332 1.578 4.672 19.95 13.133 19.95 13.133s.506-2.78 3.536-1.643c3.03 1.137 14.078 4.041 14.078 4.041s-10.417-5.68-11.049-9.027c-.631-3.346 8.461-7.389 8.461-7.389s-11.87 3.158-13.322 1.075c-1.452-2.084 1.2-10.987 1.2-10.987s-9.848 5.179-11.426 4.485c-1.579-.695-.758-7.514-.758-7.514s-3.915 3.598-7.576 3.725c-3.662.126-7.261-4.23-8.903-4.23z" transform="scale(.26458)"/><path style="opacity:.23800001;fill:#fff;fill-opacity:1;stroke:none;stroke-width:.26458332px;stroke-linecap:butt;stroke-linejoin:miter;stroke-opacity:1" d="M19.844 259.35c-8.886 0-14.08 9.48-14.08 18.922 0 0 1.718-16.918 14.08-16.918s14.08 16.918 14.08 16.918c0-9.442-5.195-18.923-14.08-18.923z" transform="translate(0 -257.313)"/><path style="opacity:.54100001;fill:#000;stroke:none;stroke-width:.26458332px;stroke-linecap:butt;stroke-linejoin:miter;stroke-opacity:1" d="M5.764 278.272c.25 12.682 10.938 16.691 14.08 16.691 3.141 0 13.83-4.009 14.08-16.691-1.822 10.27-10.607 13.433-14.08 13.433-3.474 0-12.258-3.164-14.08-13.433z" transform="translate(0 -257.313)"/><path style="fill:none;stroke:#000;stroke-width:1.05833328;stroke-linecap:butt;stroke-linejoin:miter;stroke-miterlimit:4;stroke-dasharray:none;stroke-opacity:1" d="M19.844 259.35c-5.953 0-14.08 5.976-14.08 18.922 0 10.441 7.34 16.691 14.08 16.691s14.08-6.25 14.08-16.691c0-12.946-8.127-18.923-14.08-18.923z" transform="translate(0 -257.313)"/></svg>