<svg xmlns="http://www.w3.org/2000/svg" viewBox="0 0 39.687 39.687"><path d="M19.844 2.037c-5.953 0-14.08 5.976-14.08 18.922 0 10.441 7.34 16.691 14.08 16.691s14.08-6.25 14.08-16.691c0-12.946-8.127-18.923-14.08-18.923z" fill="#ffa113"/><path d="m19.21 2.169-2.99.702s.969 1.135.868 1.453c-.1.317-1.035 1.153-1.035 1.153s1.67.033 1.77.634c.1.602-.45 2.339-.45 2.339s2.02-1.487 2.271-1.303c.25.184.084 1.787.084 1.787s1.42-1.403 1.92-1.42c.502-.016 1.688.769 2.256.819-.134-.635-1.47-2.105-1.487-2.372-.016-.267.903-1.62.903-1.62s-1.688.5-1.872.133c-.183-.367.702-1.82.702-1.82l-1.07-.418s-.7.751-1.118.751c-.418 0-.752-.818-.752-.818zm8.168 2.706-.016.084s-.234.968-.434 1.052c-.2.084-1.136-.184-1.136-.184s.768.869.751 1.253c-.017.384.602 1.52.602 1.888.45-.468 1.453-1.186 2.305-.952.852.233.801.1.801.1zM10.725 6.626l-.968.78s-.969 2.267-.473 1.535 1.5-.437 1.96-.449c-.543-.46-.52-1.866-.52-1.866zm2.982 2.115c-.166.915.932 3.108.63 4.236-.253.951-.94 1.595-2.035 2.284 0 0 2.759-.054 3.071.473.313.528-3.289 4.947-3.289 4.947s4.792-1.304 5.473-.68c.681.625-.005 3.622-.005 3.622s1.22-2.111 1.952-1.843c.732.269 2.347 2.626 3.965 3.928-.318-2.052-1.553-4.63-1.42-5.398.134-.768 2.573-.769 2.573-.769s-2.438-1.503-2.639-2.405c-.2-.902 2.906-4.41 2.906-4.41s-5.044 1.17-5.345.635c-.3-.535.668-2.506.668-2.506-1.144.604-2.252.835-3.203.58-1.127-.304-2.427-2.38-3.302-2.694zm18.065 2.582s-.502 1.153-1.17 1.22c0 0 1.52.567 1.42 1.069-.1.5-1.587 2.255-1.587 2.255s2.122-.435 2.339-.1c.217.334.117 1.987.117 1.987l.584-1.119zM6.325 14.837l-.612 2.465.29 5.938c.336-.283.661.003.893.143.464.28 1.318 1.77 2.249 2.873.056-1.442-.444-2.997-.25-3.504.193-.506 2.124-.382 2.124-.382s-1.664-1.55-1.681-2.193c-.017-.642 2.536-2.32 2.536-2.32s-3.463-.174-3.598-.579c-.134-.405 1.09-1.888 1.09-1.888-1.113.228-2.248.144-3.04-.553zm23.325 4.32s-.751 1.018-1.32 1.369c-.567.35-1.47.919-1.47.919s.886.584 1.07.935c.183.35.3 1.286.3 1.286s.702-.835 1.07-1.035c.367-.2 1.453-.117 1.453-.117s-.535-.701-.502-1.052c.034-.351-.55-1.537-.6-2.305zm3.775 4.877s-.567.769-.851.819c0 0 .484.617.133.918-.35.3-1.303.568-1.303.568s1.32.368 1.337.752c.016.384.718-1.203.718-1.203zm-17.389.585s-.15.668-.434 1.035c-.284.368-1.47.468-1.47.468s.635.618.969.935c.334.318.467 1.053.284 1.354.284-.184 1.336-.435 1.653-.769.318-.334 2.055-.551 2.055-.551s-1.035-.518-1.637-.919c-.601-.4-1.42-1.553-1.42-1.553zm9.488 1.386s.412 1.387.35 2.38c-.057.94-1.653.81-1.653.81s1.07.218 1.303 1.22c.234 1.003-1.27 1.955-1.27 1.955s1.237-.401 2.122-.318c.885.084 0 1.955 0 1.955s.551-.368 1.102-.618c.552-.25 1.254.55 1.254.55l2.522-2.94s-1.27.067-1.403-.4c-.134-.468 1.837-2.021 1.837-2.021s-2.539.618-2.856.033c-.318-.584.668-1.82.668-1.82s-1.103.818-1.77.868c-.67.05-2.206-1.654-2.206-1.654zM8.586 29.212c.702.852 1.12 2.556 1.537 3.792.418 1.236 5.279 3.475 5.279 3.475s.133-.735.935-.435c.802.301 3.725 1.07 3.725 1.07s-2.756-1.504-2.924-2.389c-.167-.885 2.24-1.955 2.24-1.955s-3.142.836-3.526.284c-.384-.55.318-2.906.318-2.906s-2.606 1.37-3.024 1.186c-.417-.184-.2-1.988-.2-1.988s-1.036.952-2.005.986c-.968.033-1.92-1.12-2.355-1.12z" fill="#ff2e01"/><path d="M19.844 2.037c-8.886 0-14.08 9.48-14.08 18.922 0 0 1.718-16.918 14.08-16.918s14.08 16.918 14.08 16.918c0-9.442-5.195-18.923-14.08-18.923z" opacity=".238" fill="#fff"/><path d="M5.764 20.959c.25 12.682 10.938 16.691 14.08 16.691 3.141 0 13.83-4.009 14.08-16.691-1.822 10.27-10.607 13.433-14.08 13.433-3.474 0-12.258-3.164-14.08-13.433z" opacity=".541"/><path d="M19.844 2.037c-5.953 0-14.08 5.976-14.08 18.922 0 10.441 7.34 16.691 14.08 16.691s14.08-6.25 14.08-16.691c0-12.946-8.127-18.923-14.08-18.923z" fill="none" stroke="#000" stroke-width="1.058"/></svg>