<svg xmlns="http://www.w3.org/2000/svg" viewBox="0 0 39.687 39.687"><path style="fill:#8c00ff;fill-opacity:1;stroke:none;stroke-width:1.05833328;stroke-linecap:butt;stroke-linejoin:miter;stroke-miterlimit:4;stroke-dasharray:none;stroke-opacity:1" d="M19.844 259.35c-5.953 0-14.08 5.976-14.08 18.922 0 10.441 7.34 16.691 14.08 16.691s14.08-6.25 14.08-16.691c0-12.946-8.127-18.923-14.08-18.923z" transform="translate(0 -257.313)"/><path style="fill:#e14747;stroke:none;stroke-width:1px;stroke-linecap:butt;stroke-linejoin:miter;stroke-opacity:1;fill-opacity:1" d="M69.018 7.053S53.539 26.508 53.539 71.965c0 45.457 11.818 69.91 11.818 69.91l7.233 1.25s-8.951-25.956-8.951-67.877c0-41.921 9.308-67.658 9.308-67.658l-3.93-.537zm14.214 0-3.93.537s9.31 25.737 9.31 67.658c0 41.921-8.952 67.877-8.952 67.877l7.233-1.25s11.818-24.453 11.818-69.91c0-45.457-15.479-64.912-15.479-64.912zm-34.304 10.09C35.732 24.697 18.435 51.258 22.223 88.38c3.788 37.123 31.884 48.047 31.884 48.047C43.93 126.07 33.036 109.463 30 77.678c-3.036-31.786 18.928-60.535 18.928-60.535zm54.394 0s20.575 31.401 17.54 63.187c-3.036 31.786-12.54 45.74-22.72 56.098 0 0 26.312-11.281 30.1-48.405 3.788-37.123-11.724-63.326-24.92-70.88z" transform="scale(.26458)"/><path style="opacity:.23800001;fill:#fff;fill-opacity:1;stroke:none;stroke-width:.26458332px;stroke-linecap:butt;stroke-linejoin:miter;stroke-opacity:1" d="M19.844 259.35c-8.886 0-14.08 9.48-14.08 18.922 0 0 1.718-16.918 14.08-16.918s14.08 16.918 14.08 16.918c0-9.442-5.195-18.923-14.08-18.923z" transform="translate(0 -257.313)"/><path style="opacity:.54100001;fill:#000;stroke:none;stroke-width:.26458332px;stroke-linecap:butt;stroke-linejoin:miter;stroke-opacity:1" d="M5.764 278.272c.25 12.682 10.938 16.691 14.08 16.691 3.141 0 13.83-4.009 14.08-16.691-1.822 10.27-10.607 13.433-14.08 13.433-3.474 0-12.258-3.164-14.08-13.433z" transform="translate(0 -257.313)"/><path style="fill:none;stroke:#000;stroke-width:1.05833328;stroke-linecap:butt;stroke-linejoin:miter;stroke-miterlimit:4;stroke-dasharray:none;stroke-opacity:1" d="M19.844 259.35c-5.953 0-14.08 5.976-14.08 18.922 0 10.441 7.34 16.691 14.08 16.691s14.08-6.25 14.08-16.691c0-12.946-8.127-18.923-14.08-18.923z" transform="translate(0 -257.313)"/></svg>