<svg xmlns="http://www.w3.org/2000/svg" viewBox="0 0 39.687 39.687"><path d="M19.844 2.037c-5.953 0-14.08 5.977-14.08 18.922 0 10.442 7.34 16.692 14.08 16.692s14.08-6.25 14.08-16.692c0-12.945-8.127-18.922-14.08-18.922z" fill="#fcecce"/><path d="M19.923 4.408c-6.095 0-8.787 3.567-8.787 3.567 7.455-5.923 14.593.577 14.26 1.546-.335.97-.403 3.45 1.603 4.677 1.637 1.003 3.741.268 3.708-2.205-.033-2.472-4.689-7.585-10.784-7.585zm-1.778 3.46c-1.002 0-1.603.317-1.603.317s1.27 1.036 1.37 1.904c.1.869 0 2.54 0 2.873 0 .334-1.838 2.172-1.838 2.172l2.472 2.339h2.64l2.338-2.406s-1.703-1.637-1.703-2.205c0-.568-.418-4.994-3.676-4.994zm-5.841.902c-1.189.037-2.65 1.238-3.656 3.023-2.19 4.78-2.797 10.47-.87 14.836 0 0-1.028-6.3-.248-8.697 1.206-3.708 2.106-3.542 3.098-2.966.99.576 4.3-1.383 3.5-4.455-.325-1.248-1.01-1.767-1.824-1.741zm18.97 3.658s1.939 5.245.803 9.154c-1.136 3.909-1.904 3.575-2.94 2.973-1.036-.6-4.443 1.37-3.608 4.577.835 3.208 4.276 2.172 6.047-.969 1.77-3.14 2.305-11.793-.301-15.735zm-6.806 3.459-2.338 2.472v2.639l2.405 2.339s1.637-1.704 2.205-1.704c.568 0 3.925-.05 4.21-3.358.085-.998-.084-1.37-.084-1.37s-.518.686-1.386.786c-.869.1-2.506.033-2.84.033-.335 0-2.172-1.837-2.172-1.837zm-9.237.08s-1.637 1.703-2.205 1.703c-.568 0-3.926.05-4.21 3.358-.085.998.084 1.37.084 1.37s.518-.685 1.386-.786c.87-.1 2.506-.033 2.84-.033.334 0 2.172 1.838 2.172 1.838l2.338-2.473v-2.64zm3.281 5.68-2.339 2.405s1.704 1.637 1.704 2.205c0 .568.418 4.994 3.675 4.994 1.003 0 1.604-.317 1.604-.317s-1.27-1.036-1.37-1.904c-.1-.869 0-2.54 0-2.874 0-.334 1.838-2.171 1.838-2.171l-2.473-2.339zm-7.414 2.927c-1.162.056-2.219.916-2.274 2.615-.08 2.471 4.335 7.793 10.423 8.074 6.089.281 8.943-3.158 8.943-3.158-7.721 5.573-14.552-1.25-14.174-2.202.379-.952.646-3.673-1.352-4.913a2.729 2.729 0 0 0-1.566-.416z" fill="#ff5f46"/><path d="M19.844 2.037c-8.886 0-14.08 9.48-14.08 18.922 0 0 1.718-16.918 14.08-16.918s14.08 16.918 14.08 16.918c0-9.441-5.195-18.922-14.08-18.922z" opacity=".238" fill="#fff"/><path d="M5.764 20.96c.25 12.681 10.938 16.69 14.08 16.69 3.141 0 13.83-4.009 14.08-16.69-1.822 10.269-10.607 13.433-14.08 13.433-3.474 0-12.258-3.164-14.08-13.434z" opacity=".541"/><path d="M19.844 2.037c-5.953 0-14.08 5.976-14.08 18.922 0 10.442 7.34 16.692 14.08 16.692s14.08-6.25 14.08-16.692c0-12.946-8.127-18.922-14.08-18.922z" fill="none" stroke="#000" stroke-width="1.058"/></svg>