<svg xmlns="http://www.w3.org/2000/svg" viewBox="0 0 39.687 39.687"><path style="fill:#acf461;fill-opacity:1;stroke:none;stroke-width:1.05833328;stroke-linecap:butt;stroke-linejoin:miter;stroke-miterlimit:4;stroke-dasharray:none;stroke-opacity:1" d="M19.844 259.35c-5.953 0-14.08 5.976-14.08 18.922 0 10.441 7.34 16.691 14.08 16.691s14.08-6.25 14.08-16.691c0-12.946-8.127-18.923-14.08-18.923z" transform="translate(0 -257.313)"/><path style="fill:#d06afc;fill-opacity:1;stroke:none;stroke-width:1px;stroke-linecap:butt;stroke-linejoin:miter;stroke-opacity:1" d="M76.04 7.252c-4.294-.047-9.045.627-9.12 2.008-.134 2.455 3.437 11.385 6.205 11.385 2.188 0 4.33-3.886 4.91-4.868.58-.982 5.626-5 4.778-7.097-.372-.918-3.435-1.391-6.774-1.428zm-18.337 8.244c-2.06.105-6.565 2.801-4.89 4.434 1.785 1.74 8.794-3.885 5.267-4.42a1.898 1.898 0 0 0-.377-.014zm-13.105 5.191s-12.5 12.546-10.67 13.84c1.83 1.295 11.518-3.57 11.92-6.472.401-2.902-1.25-7.367-1.25-7.367zm28.449 10.245c-5.935 0-11.68 2.525-11.617 10.353.063 7.829-2.21 13.953-9.028 17.047-6.818 3.094-7.956 6.755-6.125 12.5 1.831 5.745 25.242 3.205 35.42-3.67 10.179-6.875 13.66-23.84 9.553-27.857-4.107-4.018-14.442-8.373-18.203-8.373zm29.168 1.453c-2.241 0-4.167.756-3.883 2.808.284 2.052 3.662 5.177 6.156 4.672 2.494-.505 2.273-3.22 1.8-4.135-.474-.915-2.842-3.345-4.073-3.345zm-56.69 3.113a4.434 4.434 0 0 0-1.73.28c-2.678.994-4.42 8.303-2.813 12.857 1.608 4.553 8.483.624 9.153-3.483.337-2.069.54-4.963-.56-7.015-.814-1.516-2.351-2.57-4.05-2.639zM25.178 54.75l-2.008 8.795s1.206 2.233 3.84.805c2.634-1.429.802-7.591-1.832-9.6zm76.185 1.896a8.048 8.048 0 0 0-2.21.204c-4.562 1.079-6.206 8.525-3.17 12.632 3.035 4.108 10.892 5 12.41-.357 1.517-5.357.458-9.2-1.25-10.4-1.517-1.066-3.59-1.982-5.78-2.079zm18.53 10.02c-2.715 0-4.261 2.337-4.135 5.557.126 3.22-1.61 5.396-4.104 7.732-2.494 2.336-3.82 3.346-1.357 9.123 2.462 5.777 3.85 12.502 9.879 12.502 6.03 0 7.323-9.775 7.86-19.15.535-9.375-1.644-15.764-8.143-15.764zm-91.23 3.852c-3.978 0-8.08 6.88-5.808 10.732 2.273 3.851 10.544 5.998 13.448 6.25 2.904.253 2.967-3.915 2.336-6.945-.632-3.03-6.063-10.037-9.977-10.037zm32.64 9.091c-6.945 0-13.258 4.229-12.121 8.143 1.136 3.914 4.987 6.44 7.765 4.672 2.778-1.768 7.64-5.05 11.49-4.545 3.852.505 6.062-1.578 3.41-4.672-2.651-3.094-7.009-3.598-10.544-3.598zm31.252 4.45c-4.893 0-8.081 1.263-8.586 5.177-.505 3.915.853 9.63 3.441 9.44 2.589-.19 3.377-4.168 4.324-4.989.947-.82 4.987 1.073 6.471-1.136 1.484-2.21 1.768-4.577.916-6.03-.852-1.452-4.136-2.462-6.566-2.462zm-69.653 6.54s2.097 13.616 3.57 14.33c1.474.715 5.225-5.177 5.135-8.347-.089-3.17-6.651-5.982-8.705-5.982zm43.389 5.297c-4.42 0-14.521 4.421-14.143 9.22.38 4.797 4.546 6.06 4.862 8.648.315 2.588-.189 3.347 1.642 6.125s5.052 6.312 9.471 6.691c4.42.379 8.328-2.79 7.926-7.209-.402-4.42-4.04-2.164-4.576-7.834-.536-5.67 2.099-6.519 1.117-9.51-.982-2.99-3.535-6.13-6.299-6.13zm-30.13 9.926c-1.643-.178-3.796 4.553-2.546 6.473s3.393 1.072 3.17-.893c-.223-1.964 1.385-2.41 1.475-3.347.089-.938-.94-2.107-2.1-2.233zm62.857.803c-3.393 0-2.813 5.537-4.42 7.725-1.607 2.187-3.437 6.919-.446 11.785 2.991 4.866 10.758 4.643 13.883-1.563 3.125-6.205-4.33-17.947-9.017-17.947zm-54.33 13.35c-2.858 0-6.742 3.169-6.653 4.33.09 1.16 17.903 14.419 18.885 13.705.982-.715.357-4.376-1.92-6.697-2.277-2.322-6.205-5.044-6.563-6.74-.357-1.697-1.16-4.598-3.75-4.598z" transform="scale(.26458)"/><path style="opacity:.23800001;fill:#fff;fill-opacity:1;stroke:none;stroke-width:.26458332px;stroke-linecap:butt;stroke-linejoin:miter;stroke-opacity:1" d="M19.844 259.35c-8.886 0-14.08 9.48-14.08 18.922 0 0 1.718-16.918 14.08-16.918s14.08 16.918 14.08 16.918c0-9.442-5.195-18.923-14.08-18.923z" transform="translate(0 -257.313)"/><path style="opacity:.54100001;fill:#000;stroke:none;stroke-width:.26458332px;stroke-linecap:butt;stroke-linejoin:miter;stroke-opacity:1" d="M5.764 278.272c.25 12.682 10.938 16.691 14.08 16.691 3.141 0 13.83-4.009 14.08-16.691-1.822 10.27-10.607 13.433-14.08 13.433-3.474 0-12.258-3.164-14.08-13.433z" transform="translate(0 -257.313)"/><path style="fill:none;stroke:#000;stroke-width:1.05833328;stroke-linecap:butt;stroke-linejoin:miter;stroke-miterlimit:4;stroke-dasharray:none;stroke-opacity:1" d="M19.844 259.35c-5.953 0-14.08 5.976-14.08 18.922 0 10.441 7.34 16.691 14.08 16.691s14.08-6.25 14.08-16.691c0-12.946-8.127-18.923-14.08-18.923z" transform="translate(0 -257.313)"/></svg>