<svg xmlns="http://www.w3.org/2000/svg" viewBox="0 0 39.687 39.687"><path d="M19.844 2.037c-5.953 0-14.08 5.977-14.08 18.922 0 10.442 7.34 16.692 14.08 16.692s14.08-6.25 14.08-16.692c0-12.945-8.127-18.922-14.08-18.922z" fill="#f24820"/><path d="M16.771 4.308c-2.238 2.338-5.111 10.022-4.276 12.495.835 2.472 4.343 3.374 4.343 3.374s-1.637 3.24-1.27 4.944c.368 1.704 3.496 4.456 3.237 6.629 0 0-4.705-.676-6.521-4.866-1.228-2.835-1.04-6.001-1.04-6.001s-1.558-1.89-2.125-6.52c0 0-2.363 5.481-1.938 6.757.426 1.275 3.355 4.252 3.497 5.574.142 1.323-.473 3.97-1.937 4.253l-.804-1.488s.142-2.457-.236-3.497-1.63-2.079-1.63-2.079 2.192 13.75 13.64 13.75 13.64-13.75 13.64-13.75-1.252 1.04-1.63 2.08c-.378 1.039-.236 3.496-.236 3.496l-.804 1.488c-1.464-.284-2.078-2.93-1.937-4.253.142-1.322 3.072-4.299 3.497-5.574.425-1.276-1.937-6.757-1.937-6.757-.567 4.63-2.126 6.52-2.126 6.52s.188 3.166-1.04 6c-1.816 4.191-6.52 4.867-6.52 4.867-.26-2.173 2.868-4.925 3.236-6.629.367-1.703-1.27-4.944-1.27-4.944s3.508-.902 4.344-3.374c.835-2.473-2.038-10.157-4.277-12.495 1.07 1.67 3.207 7.149 2.405 10.356-.801 3.207-4.443 3.174-4.443 3.174 1.838 3.976 1.136 8.052-.902 8.052s-2.74-4.076-.902-8.052c0 0-3.642.033-4.443-3.174-.802-3.207 1.336-8.686 2.405-10.356zm2.94 1.173s-1.261 2.645-1.309 3.26c-.047.614 1.309 3.472 1.309 3.472s1.668-2.693 1.645-3.236c-.024-.544-1.645-3.496-1.645-3.496zm-7.498.543S10.016 8.15 9.827 8.552c-.189.402-.105 2.839-.105 2.839s1.759-2.107 1.924-2.556c.166-.449.567-2.811.567-2.811zm14.996 0s.402 2.362.567 2.811c.165.449 1.925 2.556 1.925 2.556s.083-2.437-.106-2.84c-.189-.4-2.386-2.527-2.386-2.527zM13.5 32.117c.05.01.11.064.18.17.569.852 3.693 3.742 3.693 3.742s-1.52.084-2.84-.985c-1.155-.936-1.376-2.997-1.033-2.927zm12.422 0c.343-.07.122 1.991-1.033 2.927-1.32 1.069-2.84.985-2.84.985s3.125-2.89 3.693-3.742c.07-.106.13-.16.18-.17z" fill="#314c99"/><path d="M19.844 2.037c-8.886 0-14.08 9.48-14.08 18.922 0 0 1.718-16.918 14.08-16.918s14.08 16.918 14.08 16.918c0-9.441-5.195-18.922-14.08-18.922z" opacity=".238" fill="#fff"/><path d="M5.764 20.96c.25 12.681 10.938 16.69 14.08 16.69 3.141 0 13.83-4.009 14.08-16.69-1.822 10.269-10.607 13.433-14.08 13.433-3.474 0-12.258-3.164-14.08-13.434z" opacity=".541"/><path d="M19.844 2.037c-5.953 0-14.08 5.976-14.08 18.922 0 10.442 7.34 16.692 14.08 16.692s14.08-6.25 14.08-16.692c0-12.946-8.127-18.922-14.08-18.922z" fill="none" stroke="#000" stroke-width="1.058"/></svg>