<svg xmlns="http://www.w3.org/2000/svg" viewBox="0 0 39.687 39.687"><path style="fill:#6ded16;fill-opacity:1;stroke:none;stroke-width:1.05833328;stroke-linecap:butt;stroke-linejoin:miter;stroke-miterlimit:4;stroke-dasharray:none;stroke-opacity:1" d="M19.844 259.35c-5.953 0-14.08 5.976-14.08 18.922 0 10.441 7.34 16.691 14.08 16.691s14.08-6.25 14.08-16.691c0-12.946-8.127-18.923-14.08-18.923z" transform="translate(0 -257.313)"/><path style="fill:#ffda00;stroke:none;stroke-width:1px;stroke-linecap:butt;stroke-linejoin:miter;stroke-opacity:1;fill-opacity:1" d="m53.66 13.572-7.945 5.088s9.552 15.625 31.338 14.733C98.838 32.5 110 24.375 110 24.375l-9.107-7.678s-5.625 6.964-22.143 7.678c-16.518.714-25.09-10.803-25.09-10.803zm-12.588 9.91-5.715 7.678s5.09 23.929 28.75 29.108c23.661 5.178 41.786-7.053 48.036-10.446s11.072-2.144 11.072-2.144l-5.805-12.32s-4.608-.069-8.847 2.726c-5.248 3.46-9.226 8.71-28.295 9.416-26.518.982-39.196-24.018-39.196-24.018zM29.465 40.625l-4.969 14.168c9.344 3.03 13.005 38.006 44.572 39.9 31.568 1.894 38.64-11.489 59.348-12.752l-.506-15.404c-20.077.631-18.814 14.016-48.613 14.016-29.8 0-41.35-34.66-49.832-39.928zm-7.621 28.059.127 20.455c8.965 1.641 17.678 34.092 44.068 35.607 26.39 1.515 43.436-14.899 55.81-13.51l4.042-12.25c-22.35-.505-20.962 14.27-54.297 10.608-33.335-3.662-34.472-37.627-49.75-40.91zm8.46 43.687c3.41 10.102 18.562 29.93 44.696 29.93 26.134 0 39.652-20.586 39.652-20.586-15.53-2.02-22.224 16.036-44.447 15.531-22.223-.505-26.137-18.056-39.9-24.875z" transform="scale(.26458)"/><path style="opacity:.23800001;fill:#fff;fill-opacity:1;stroke:none;stroke-width:.26458332px;stroke-linecap:butt;stroke-linejoin:miter;stroke-opacity:1" d="M19.844 259.35c-8.886 0-14.08 9.48-14.08 18.922 0 0 1.718-16.918 14.08-16.918s14.08 16.918 14.08 16.918c0-9.442-5.195-18.923-14.08-18.923z" transform="translate(0 -257.313)"/><path style="opacity:.54100001;fill:#000;stroke:none;stroke-width:.26458332px;stroke-linecap:butt;stroke-linejoin:miter;stroke-opacity:1" d="M5.764 278.272c.25 12.682 10.938 16.691 14.08 16.691 3.141 0 13.83-4.009 14.08-16.691-1.822 10.27-10.607 13.433-14.08 13.433-3.474 0-12.258-3.164-14.08-13.433z" transform="translate(0 -257.313)"/><path style="fill:none;stroke:#000;stroke-width:1.05833328;stroke-linecap:butt;stroke-linejoin:miter;stroke-miterlimit:4;stroke-dasharray:none;stroke-opacity:1" d="M19.844 259.35c-5.953 0-14.08 5.976-14.08 18.922 0 10.441 7.34 16.691 14.08 16.691s14.08-6.25 14.08-16.691c0-12.946-8.127-18.923-14.08-18.923z" transform="translate(0 -257.313)"/></svg>