<svg xmlns="http://www.w3.org/2000/svg" viewBox="0 0 39.687 39.687"><path style="fill:#00b5b8;fill-opacity:1;stroke:none;stroke-width:1.05833328;stroke-linecap:butt;stroke-linejoin:miter;stroke-miterlimit:4;stroke-dasharray:none;stroke-opacity:1" d="M19.844 259.35c-5.953 0-14.08 5.976-14.08 18.922 0 10.441 7.34 16.691 14.08 16.691s14.08-6.25 14.08-16.691c0-12.946-8.127-18.923-14.08-18.923z" transform="translate(0 -257.313)"/><path style="fill:#ff6b00;stroke:none;stroke-width:1px;stroke-linecap:butt;stroke-linejoin:miter;stroke-opacity:1;fill-opacity:1" d="M79.107 7.5c14.643 14.821 14.107 38.036 21.786 38.215 7.678.178 3.392-16.608-5.358-31.965 0 0-12.32-6.448-16.428-6.25zM61.982 9.805c-4.06.643-15.88 9.111-15.88 9.111-9.187 30.747-9.554 43.83-1.946 44.885 6.767.939 4.726-28.823 17.826-53.996zm7.215 19.035c-4.366.24-5.982 17.946-4.375 38.66 1.607 20.714 4.642 39.822 8.57 39.107 3.93-.714 5.537-20.536 4.465-38.93-1.071-18.392-3.477-39.121-8.66-38.837zM28.572 46.785c-1.071-.536-9.287 18.572-7.144 37.5 2.143 18.929 11.43 33.393 11.43 33.393 4.464-6.786-4.823-25.715-5.715-36.25-.893-10.536 2.5-34.107 1.43-34.643zm94.106 1.25c-.893.536-.356 26.071-1.07 40.893-.715 14.821-7.5 32.322-7.5 32.322 7.32-7.857 13.035-22.321 14.107-38.393 1.071-16.071-4.644-35.358-5.537-34.822zM97.715 60.572c-5.183-.284-2.946 16.34-4.018 34.733-1.071 18.393-8.036 36.785-4.107 37.5 3.928.714 13.393-17.321 15-38.035 1.607-20.715-2.508-33.958-6.875-34.198zM46.133 85.03c-4.544.351-2.614 18.057 1.549 30.649 5.782 17.493 19.77 28.255 23.746 27.88 3.975-.374-5.949-5.135-12.137-24.968-4.408-14.128-5.214-32.346-12.697-33.54a1.966 1.966 0 0 0-.461-.02z" transform="scale(.26458)"/><path style="opacity:.23800001;fill:#fff;fill-opacity:1;stroke:none;stroke-width:.26458332px;stroke-linecap:butt;stroke-linejoin:miter;stroke-opacity:1" d="M19.844 259.35c-8.886 0-14.08 9.48-14.08 18.922 0 0 1.718-16.918 14.08-16.918s14.08 16.918 14.08 16.918c0-9.442-5.195-18.923-14.08-18.923z" transform="translate(0 -257.313)"/><path style="opacity:.54100001;fill:#000;stroke:none;stroke-width:.26458332px;stroke-linecap:butt;stroke-linejoin:miter;stroke-opacity:1" d="M5.764 278.272c.25 12.682 10.938 16.691 14.08 16.691 3.141 0 13.83-4.009 14.08-16.691-1.822 10.27-10.607 13.433-14.08 13.433-3.474 0-12.258-3.164-14.08-13.433z" transform="translate(0 -257.313)"/><path style="fill:none;stroke:#000;stroke-width:1.05833328;stroke-linecap:butt;stroke-linejoin:miter;stroke-miterlimit:4;stroke-dasharray:none;stroke-opacity:1" d="M19.844 259.35c-5.953 0-14.08 5.976-14.08 18.922 0 10.441 7.34 16.691 14.08 16.691s14.08-6.25 14.08-16.691c0-12.946-8.127-18.923-14.08-18.923z" transform="translate(0 -257.313)"/></svg>