<svg xmlns="http://www.w3.org/2000/svg" viewBox="0 0 39.687 39.687"><path d="M19.844 2.037c-5.953 0-14.08 5.976-14.08 18.922 0 10.441 7.34 16.691 14.08 16.691s14.08-6.25 14.08-16.691c0-12.946-8.127-18.923-14.08-18.923z" fill="#00d9bb"/><path d="m19.843 2.036-2.605.3s1.537 1.237 2.005 1.972c.468.735.635 6.714.635 6.714s2.072-5.479 2.105-6.18c.033-.701-1.637-1.637-1.938-1.87-.3-.234-.202-.936-.202-.936zM23.62 3.54s.1 4.41.234 5.011c.134.602 1.771 1.972 1.638 2.54-.134.568-2.372 3.708-2.372 4.042 0 .334 2.271 3.642 2.405 4.243.133.601.167 5.712.167 5.712s2.339-5.88 2.305-6.38c-.033-.502-1.804-2.84-1.804-3.442 0-.6 1.437-3.975 1.537-4.41.1-.434-1.837-2.472-2.138-3.006-.3-.534-1.972-4.31-1.972-4.31zm-9.654 1.036s-4.978 4.61-5.245 5.612c-.267 1.003.902 4.945.768 5.446-.134.501-1.971 4.343-1.938 5.078.034.735 2.071 3.475 2.272 4.143.2.668-.134 4.777-.134 4.777s2.84-4.376 2.84-5.379c0-1.002-1.837-3.575-1.704-4.243.134-.668 1.771-3.006 1.871-4.075.1-1.07-1.47-3.642-1.503-4.41-.033-.769 2.773-6.95 2.773-6.95zm3.173 2.138s-2.605 5.245-2.505 6.08c.1.836 3.04 3.575 2.94 4.443-.1.869-1.871 2.94-1.838 3.208.034.267 3.308 3.641 3.24 3.975-.066.335-1.269 2.873-1.101 3.408.167.534 2.572 7.216 2.572 7.216s.534-6.414.668-7.049c.134-.635 1.704-3.408 1.704-3.875 0-.468-2.706-2.907-2.806-3.842-.1-.936.668-3.943.534-4.443-.133-.502-3.775-2.974-3.875-3.709-.1-.735.467-5.412.467-5.412zM31.17 9.887s-.902 3.274-.769 3.842c.134.568 1.67 2.572 1.738 3.007.066.434-1.07 4.242-.935 4.91.133.669 1.37 2.172 1.37 2.64 0 .467-2.005 3.374-2.005 3.708 0 .334.534 2.973.534 2.973s2.867-3.914 2.82-10.008c-.047-6.095-2.753-11.072-2.753-11.072zM13.136 27.962s.24 3.442.2 4.076c-.033.548-.668 2.226-.734 3.074 1.536 1.704 4.944 2.171 4.944 2.171-.368-.835-2.272-2.306-2.305-2.54-.034-.233-.067-2.404-.067-2.872 0-.468-2.038-3.909-2.038-3.909zm14.994.032s-3.14 3.174-3.14 3.641c0 .468.4 2.406.367 2.64-.034.234-1.503 1.57-1.87 2.406 0 0 2.973-.335 4.51-2.038-.067-.848-.703-2.526-.736-3.074-.039-.635.869-3.575.869-3.575z" fill="#fc0"/><path d="M19.844 2.037c-8.886 0-14.08 9.48-14.08 18.922 0 0 1.718-16.918 14.08-16.918s14.08 16.918 14.08 16.918c0-9.442-5.195-18.923-14.08-18.923z" opacity=".238" fill="#fff"/><path d="M5.764 20.959c.25 12.682 10.938 16.691 14.08 16.691 3.141 0 13.83-4.009 14.08-16.691-1.822 10.27-10.607 13.433-14.08 13.433-3.474 0-12.258-3.164-14.08-13.433z" opacity=".541"/><path d="M19.844 2.037c-5.953 0-14.08 5.976-14.08 18.922 0 10.441 7.34 16.691 14.08 16.691s14.08-6.25 14.08-16.691c0-12.946-8.127-18.923-14.08-18.923z" fill="none" stroke="#000" stroke-width="1.058"/></svg>