<svg xmlns="http://www.w3.org/2000/svg" viewBox="0 0 39.687 39.687"><path style="fill:#00d9bb;fill-opacity:1;stroke:none;stroke-width:1.05833328;stroke-linecap:butt;stroke-linejoin:miter;stroke-miterlimit:4;stroke-dasharray:none;stroke-opacity:1" d="M19.844 259.35c-5.953 0-14.08 5.976-14.08 18.922 0 10.441 7.34 16.691 14.08 16.691s14.08-6.25 14.08-16.691c0-12.946-8.127-18.923-14.08-18.923z" transform="translate(0 -257.313)"/><path style="fill:#fc0;stroke:none;stroke-width:1px;stroke-linecap:butt;stroke-linejoin:miter;stroke-opacity:1;fill-opacity:1" d="m75 7.697-9.846 1.135s5.809 4.671 7.576 7.45c1.768 2.777 2.4 25.378 2.4 25.378s7.83-20.708 7.956-23.36c.126-2.65-6.188-6.186-7.324-7.07C74.625 10.347 75 7.697 75 7.697zm14.271 5.68s.38 16.667.885 18.94c.505 2.272 6.693 7.45 6.188 9.597-.505 2.147-8.965 14.015-8.965 15.277 0 1.263 8.585 13.765 9.09 16.038.505 2.272.633 21.591.633 21.591s8.839-22.223 8.712-24.117c-.126-1.894-6.82-10.733-6.82-13.006 0-2.273 5.43-15.026 5.809-16.668.379-1.641-6.944-9.343-8.08-11.363-1.137-2.02-7.452-16.289-7.452-16.289zm-36.49 3.914S33.967 34.716 32.957 38.504c-1.01 3.788 3.41 18.688 2.904 20.582-.505 1.894-7.45 16.415-7.324 19.193.126 2.778 7.828 13.133 8.586 15.659.758 2.525-.506 18.054-.506 18.054s10.735-16.54 10.735-20.328c0-3.788-6.945-13.512-6.44-16.037.505-2.525 6.692-11.364 7.07-15.404.38-4.041-5.555-13.764-5.681-16.668-.126-2.905 10.48-26.264 10.48-26.264zm11.994 8.082s-9.847 19.824-9.468 22.98c.378 3.157 11.49 13.51 11.111 16.793-.379 3.283-7.072 11.113-6.945 12.124.126 1.01 12.5 13.762 12.248 15.025-.253 1.263-4.798 10.859-4.166 12.879.631 2.02 9.722 27.275 9.722 27.275s2.02-24.243 2.526-26.642c.505-2.4 6.44-12.881 6.44-14.649 0-1.768-10.23-10.986-10.608-14.521-.379-3.536 2.526-14.9 2.021-16.793-.505-1.894-14.27-11.238-14.648-14.016-.379-2.778 1.767-20.455 1.767-20.455zm53.034 11.994s-3.41 12.375-2.905 14.522c.505 2.146 6.314 9.723 6.567 11.365.252 1.641-4.04 16.035-3.535 18.56.505 2.526 5.177 8.207 5.177 9.975 0 1.768-7.576 12.755-7.576 14.018 0 1.262 2.02 11.236 2.02 11.236s10.836-14.794 10.658-37.828c-.178-23.034-10.406-41.848-10.406-41.848zm-68.16 68.319s.904 13.006.757 15.404c-.126 2.07-2.525 8.414-2.777 11.617 5.808 6.44 18.687 8.207 18.687 8.207-1.389-3.157-8.586-8.714-8.712-9.598-.127-.883-.252-9.09-.252-10.857 0-1.768-7.704-14.773-7.704-14.773zm56.67.12s-11.87 11.995-11.87 13.762c0 1.768 1.515 9.093 1.389 9.977-.126.884-5.681 5.935-7.07 9.092 0 0 11.238-1.264 17.046-7.703-.252-3.203-2.653-9.547-2.779-11.618-.146-2.398 3.283-13.51 3.283-13.51z" transform="scale(.26458)"/><path style="opacity:.23800001;fill:#fff;fill-opacity:1;stroke:none;stroke-width:.26458332px;stroke-linecap:butt;stroke-linejoin:miter;stroke-opacity:1" d="M19.844 259.35c-8.886 0-14.08 9.48-14.08 18.922 0 0 1.718-16.918 14.08-16.918s14.08 16.918 14.08 16.918c0-9.442-5.195-18.923-14.08-18.923z" transform="translate(0 -257.313)"/><path style="opacity:.54100001;fill:#000;stroke:none;stroke-width:.26458332px;stroke-linecap:butt;stroke-linejoin:miter;stroke-opacity:1" d="M5.764 278.272c.25 12.682 10.938 16.691 14.08 16.691 3.141 0 13.83-4.009 14.08-16.691-1.822 10.27-10.607 13.433-14.08 13.433-3.474 0-12.258-3.164-14.08-13.433z" transform="translate(0 -257.313)"/><path style="fill:none;stroke:#000;stroke-width:1.05833328;stroke-linecap:butt;stroke-linejoin:miter;stroke-miterlimit:4;stroke-dasharray:none;stroke-opacity:1" d="M19.844 259.35c-5.953 0-14.08 5.976-14.08 18.922 0 10.441 7.34 16.691 14.08 16.691s14.08-6.25 14.08-16.691c0-12.946-8.127-18.923-14.08-18.923z" transform="translate(0 -257.313)"/></svg>