<svg xmlns="http://www.w3.org/2000/svg" viewBox="0 0 39.687 39.687"><path d="M19.844 2.037c-5.953 0-14.08 5.976-14.08 18.922 0 10.441 7.34 16.691 14.08 16.691s14.08-6.25 14.08-16.691c0-12.946-8.127-18.923-14.08-18.923z" fill="#719e17"/><path d="m12.662 4.701-2.22 2.385s2.67-.33 3.212-1.015c.544-.685-.992-1.37-.992-1.37zm13.93.998c-2.797-.029-5.269.413-5.165 1.199.118.897 5.15 2.007 9.284 1.771L27.805 5.74a25.34 25.34 0 0 0-1.212-.041zM15.024 9.851c-3.354 0-6.52.378-6.874.685-.354.307-1.252 1.464-1.11 2.102.142.638 1.748 1.465 8.055 1.465 6.308 0 8.741-1.276 8.741-1.89 0-.615-2.717-2.362-8.812-2.362zm17.837 4.37s-4.796.898-4.725 2.268c.07 1.37 5.598 1.559 5.598 1.559zm-14.79 3.874c-3.755 0-8.17.9-8.055 2.103.12 1.252 6.662 1.913 12.52 1.913 5.221 0 6.5-1.008 6.19-1.89-.448-1.276-6.496-2.126-10.654-2.126zM6.024 23.741l.67 2.543c2.567.978 8.781.514 8.874-.582.118-1.394-4.252-1.96-9.544-1.96zm14.962 3.627c-2.267-.004-3.74.742-3.008 1.783.78 1.11 11.08 1.583 12.969.709.998-.462-.024-2.056-9.497-2.48a10.495 10.495 0 0 0-.464-.012zm-9.127 5.303c-2.291 0-1.82.874-.402 1.7 1.418.827 4.253 1.111 6.072 1.111s6.024-.33 5.74-1.559c-.283-1.228-4.464-1.252-11.41-1.252z" fill="#6f5f5f"/><path d="M19.844 2.037c-8.886 0-14.08 9.48-14.08 18.922 0 0 1.718-16.918 14.08-16.918s14.08 16.918 14.08 16.918c0-9.442-5.195-18.923-14.08-18.923z" opacity=".238" fill="#fff"/><path d="M5.764 20.959c.25 12.682 10.938 16.691 14.08 16.691 3.141 0 13.83-4.009 14.08-16.691-1.822 10.27-10.607 13.433-14.08 13.433-3.474 0-12.258-3.164-14.08-13.433z" opacity=".541"/><path d="M19.844 2.037c-5.953 0-14.08 5.976-14.08 18.922 0 10.441 7.34 16.691 14.08 16.691s14.08-6.25 14.08-16.691c0-12.946-8.127-18.923-14.08-18.923z" fill="none" stroke="#000" stroke-width="1.058"/></svg>