<svg xmlns="http://www.w3.org/2000/svg" viewBox="0 0 39.687 39.687"><path d="M19.844 2.037c-5.953 0-14.08 5.976-14.08 18.922 0 10.441 7.34 16.691 14.08 16.691s14.08-6.25 14.08-16.691c0-12.946-8.127-18.923-14.08-18.923z" fill="#ffe6c4"/><path d="M6.662 14.486c.697.531 1.181 2.161.484 2.54-.697.377-1.016-.213-1.016-.213zm12.665-6.302c-1.57 0-3.09.668-3.074 2.739.017 2.071-.584 3.692-2.388 4.51-1.804.819-2.105 1.788-1.62 3.308.484 1.52 6.677.847 9.37-.972 2.694-1.819 3.615-6.307 2.528-7.37-1.086-1.063-3.821-2.215-4.816-2.215zm-7.74 1.282c-.708.263-1.169 2.197-.744 3.401.425 1.205 2.244.166 2.422-.92.089-.548.143-1.314-.149-1.857-.287-.535-.913-.853-1.529-.624zm4.633 11.597c-1.838 0-3.508 1.119-3.207 2.154.3 1.036 1.32 1.704 2.054 1.237.735-.468 2.022-1.337 3.04-1.203 1.02.133 1.604-.418.903-1.236-.702-.819-1.855-.952-2.79-.952zm-8.636-2.406c1.035 0 2.472 1.854 2.64 2.656.166.802.15 1.904-.619 1.838-.768-.067-2.957-.635-3.558-1.654-.601-1.02.484-2.84 1.537-2.84zm9.956 6.715c-1.17 0-3.842 1.17-3.742 2.44.1 1.269 1.203 1.603 1.286 2.288.084.685-.05.885.434 1.62.485.735 1.337 1.67 2.506 1.77 1.17.1 2.204-.737 2.097-1.907-.106-1.17-1.069-.573-1.21-2.073-.142-1.5.555-1.724.295-2.516-.26-.791-.935-1.622-1.666-1.622zm8.658 2.839c-.897 0-.744 1.465-1.169 2.043-.425.58-.91 1.831-.118 3.119.791 1.287 2.847 1.228 3.673-.414.827-1.642-1.145-4.748-2.386-4.748zm5.524-10.573c-.719 0-1.128.618-1.095 1.47.034.852-.426 1.428-1.085 2.046-.66.619-1.011.886-.36 2.414.652 1.529 1.02 3.308 2.615 3.308 1.595 0 1.937-2.587 2.08-5.067.14-2.48-.436-4.17-2.155-4.17zm-5.488-2.597c-1.207.285-1.642 2.256-.839 3.343.803 1.086 2.882 1.323 3.284-.095.402-1.417.121-2.435-.33-2.752-.536-.376-1.333-.681-2.115-.496zm.81-6.474c-.593 0-1.102.201-1.027.744.075.543.969 1.37 1.629 1.236.66-.133.601-.852.476-1.094-.126-.242-.752-.885-1.078-.885zm-7.696-3.105c-.733 0-1.678-2.363-1.642-3.012.035-.65 3.98-.71 4.205-.154.224.555-1.11 1.618-1.264 1.878-.154.26-.72 1.288-1.3 1.288zm-3.981-1.359c-.479-.073-1.866.709-1.394 1.17.473.46 2.327-1.028 1.394-1.17zM11.8 5.473s.437 1.182.33 1.95c-.106.767-2.669 2.055-3.153 1.712-.484-.343 2.823-3.662 2.823-3.662zM24.489 22.24c-1.295 0-2.139.334-2.272 1.37-.134 1.036.225 2.547.91 2.497.685-.05.894-1.102 1.144-1.32.251-.217 1.32.285 1.713-.3.392-.585.467-1.211.242-1.595-.226-.384-1.094-.652-1.737-.652zM6.06 23.971c.543 0 2.28.744 2.303 1.582.023.839-.969 2.398-1.359 2.21-.39-.19-.945-3.792-.945-3.792zm3.508 4.027c-.435-.047-1.004 1.205-.674 1.713.331.508.898.284.839-.236-.06-.52.366-.638.39-.886.023-.248-.248-.557-.555-.59zm2.256 3.745c-.756 0-1.784.838-1.76 1.145.023.308 4.736 3.816 4.996 3.627.26-.19.094-1.158-.508-1.772-.602-.614-1.642-1.335-1.736-1.784-.095-.449-.307-1.216-.992-1.216z" fill="#ff7b62"/><path d="M19.844 2.037c-8.886 0-14.08 9.48-14.08 18.922 0 0 1.718-16.918 14.08-16.918s14.08 16.918 14.08 16.918c0-9.442-5.195-18.923-14.08-18.923z" opacity=".238" fill="#fff"/><path d="M5.764 20.959c.25 12.682 10.938 16.691 14.08 16.691 3.141 0 13.83-4.009 14.08-16.691-1.822 10.27-10.607 13.433-14.08 13.433-3.474 0-12.258-3.164-14.08-13.433z" opacity=".541"/><path d="M19.844 2.037c-5.953 0-14.08 5.976-14.08 18.922 0 10.441 7.34 16.691 14.08 16.691s14.08-6.25 14.08-16.691c0-12.946-8.127-18.923-14.08-18.923z" fill="none" stroke="#000" stroke-width="1.058"/></svg>