<svg xmlns="http://www.w3.org/2000/svg" viewBox="0 0 39.687 39.687"><path d="M19.844 2.037c-5.953 0-14.08 5.977-14.08 18.922 0 10.442 7.34 16.692 14.08 16.692s14.08-6.25 14.08-16.692c0-12.945-8.127-18.922-14.08-18.922z" fill="#0e0e0b"/><path d="m20.385 1.776-1.201.208-4.192 5.73c-3.044.186-5.981.69-5.981.69l-1.285 2.11c.635 2.62 2.9 5.748 2.9 5.748-1.907 2.62-3.786 7.489-3.786 7.489 3.309.741 8.312.767 8.312.767 1.614 3.388 4.71 6.854 4.71 6.854 2.674-2.593 4.95-6.906 4.95-6.906 4.42.158 8.153-.689 8.153-.689-1.27-3.096-3.864-7.489-3.864-7.489 1.35-1.826 3.009-5.593 3.009-5.593l-1.513-2.502-5.785-.346zm-.494.87 4.394 6.095 6.638.52.402.968s-2.008 4.418-3.213 6.048c0 0 2.315 3.921 3.449 6.685 0 0-3.331.756-7.276.614 0 0-2.032 3.85-4.417 6.166 0 0-2.764-3.095-4.205-6.119 0 0-4.466-.023-7.419-.684 0 0 1.678-4.348 3.379-6.686 0 0-2.717-4.205-3.284-6.544l.472-.26s3.993-.66 6.71-.826zm-3.07.141-1.937.52-1.252 1.914-1.677.141-1.393 1.3 3.543-.354zm6.212 0 2.717 3.52 3.543.355-1.393-1.3-1.678-.141-1.252-1.914zm-3.144 3.52-2.873 4.843-5.842.095s2.462 4.205 3.621 5.102c-1.159.898-3.621 4.938-3.621 4.938l5.842.047 2.826 4.866 2.872-4.96 5.89.212s-2.463-4.205-3.622-5.103c1.159-.897 3.621-5.102 3.621-5.102l-5.842-.095zm.07 3.733s1.227 2.055 1.517 3.638c0 0 1.69-.543 3.815-.449 0 0-1.064 1.96-2.488 3.048 1.424 1.086 2.464 3.046 2.464 3.046-2.124.095-3.768-.4-3.768-.4-.29 1.582-1.61 3.59-1.61 3.59s-1.18-2.008-1.47-3.59c0 0-1.761.495-3.886.4 0 0 1.324-1.889 2.749-2.976-1.425-1.086-2.678-3.094-2.678-3.094 2.125-.095 3.769.378 3.769.378.29-1.583 1.587-3.59 1.587-3.59zm-13.2 3.874L5.93 20.96l2.056-4.399zm26.338 0-1.229 2.646 2.056 4.4zm.113 12.378s-4.169.171-7.275.756c0 0-4.79 5.883-4.92 6.793-.205 1.42.2 3.575.2 3.575l1.403-.234s-.567-1.904-.368-3.274c.102-.701 4.32-5.757 4.32-5.757s5.017-.727 6.287-.693zm-26.628.166.4 1.236c1.27-.033 6.382.835 6.382.835s3.84 4.678 3.942 5.379c.199 1.37-.368 3.274-.368 3.274l1.404.234s.404-2.155.2-3.575c-.13-.91-4.544-6.414-4.544-6.414-3.909-.869-7.416-.97-7.416-.97zm25.564 2.405c-1.77.05-3.876.502-4.51.903-.635.4-3.375 2.89-3.375 4.109 0 1.22 2.088 1.687 2.088 1.687l1.287-1.186s-.986-.184-.986-.768c0-.585 1.052-1.804 1.887-2.255.835-.451 2.44-.385 2.44-.385zm-24.429.284 1.17 2.105s1.603-.067 2.438.384c.836.45 1.888 1.67 1.888 2.255s-.985.768-.985.768l1.286 1.186s2.088-.467 2.088-1.687-2.74-3.708-3.374-4.109c-.635-.4-2.74-.852-4.51-.902z" fill="#d33c06"/><path d="M19.844 2.037c-8.886 0-14.08 9.48-14.08 18.922 0 0 1.718-16.918 14.08-16.918s14.08 16.918 14.08 16.918c0-9.441-5.195-18.922-14.08-18.922z" opacity=".238" fill="#fff"/><path d="M5.764 20.96c.25 12.681 10.938 16.69 14.08 16.69 3.141 0 13.83-4.009 14.08-16.69-1.822 10.269-10.607 13.433-14.08 13.433-3.474 0-12.258-3.164-14.08-13.434z" opacity=".541"/><path d="M19.844 2.037c-5.953 0-14.08 5.976-14.08 18.922 0 10.442 7.34 16.692 14.08 16.692s14.08-6.25 14.08-16.692c0-12.946-8.127-18.922-14.08-18.922z" fill="none" stroke="#000" stroke-width="1.058"/></svg>