<svg xmlns="http://www.w3.org/2000/svg" viewBox="0 0 39.687 39.687"><path d="M19.844 2.037c-5.953 0-14.08 5.976-14.08 18.922 0 10.441 7.34 16.691 14.08 16.691s14.08-6.25 14.08-16.691c0-12.946-8.127-18.923-14.08-18.923z" fill="#8c00ff"/><path d="M18.26 1.866s-4.095 5.147-4.095 17.174c0 12.028 3.127 18.497 3.127 18.497l1.914.331s-2.368-6.867-2.368-17.959c0-11.091 2.462-17.9 2.462-17.9l-1.04-.143zm3.762 0-1.04.142s2.463 6.81 2.463 17.901c0 11.092-2.369 17.959-2.369 17.959l1.914-.33s3.127-6.47 3.127-18.498c0-12.027-4.095-17.174-4.095-17.174zm-9.077 2.67C9.454 6.534 4.878 13.562 5.88 23.384c1.002 9.822 8.436 12.712 8.436 12.712-2.693-2.74-5.575-7.134-6.379-15.544-.803-8.41 5.008-16.016 5.008-16.016zm14.392 0s5.444 8.308 4.64 16.718c-.803 8.41-3.317 12.102-6.01 14.842 0 0 6.961-2.985 7.963-12.807 1.002-9.822-3.102-16.755-6.593-18.753z" fill="#e14747"/><path d="M19.844 2.037c-8.886 0-14.08 9.48-14.08 18.922 0 0 1.718-16.918 14.08-16.918s14.08 16.918 14.08 16.918c0-9.442-5.195-18.923-14.08-18.923z" opacity=".238" fill="#fff"/><path d="M5.764 20.959c.25 12.682 10.938 16.691 14.08 16.691 3.141 0 13.83-4.009 14.08-16.691-1.822 10.27-10.607 13.433-14.08 13.433-3.474 0-12.258-3.164-14.08-13.433z" opacity=".541"/><path d="M19.844 2.037c-5.953 0-14.08 5.976-14.08 18.922 0 10.441 7.34 16.691 14.08 16.691s14.08-6.25 14.08-16.691c0-12.946-8.127-18.923-14.08-18.923z" fill="none" stroke="#000" stroke-width="1.058"/></svg>