<svg xmlns="http://www.w3.org/2000/svg" viewBox="0 0 39.687 39.687"><path d="M19.844 2.037c-5.953 0-14.08 5.976-14.08 18.922 0 10.441 7.34 16.691 14.08 16.691s14.08-6.25 14.08-16.691c0-12.946-8.127-18.923-14.08-18.923z" fill="#fff299"/><path d="M19.256 2.286c-.316.008-.5.03-.5.03s-2.881 3-4.393 4.37-3.59 1.062-5.008 1.889L7.937 10.63c.567-.307 2.363-.59 2.363-.59-1.37 1.347-2.717 1.985-2.717 1.985l-.638 2.29c1.276-.212 4.583-3.732 6.945-5.362 2.363-1.63 6.024-3.142 6.639-3.85.614-.71 2.291-1.654 3.85-1.654-2.02-1.099-4.172-1.187-5.123-1.163zm8.88 3.407s-2.954.213-4.348.638c-1.393.425-8.244 5.717-8.244 5.717s3.378.118 4.394-.142 3.449-1.393 4.063-1.535c.614-.142 5.575 1.157 7.843.944l-1.252-2.527c-.898.094-3.166-.166-4.087-.213-.921-.047-2.74.26-2.74.26s.921-.874 1.275-.992c.355-.118 4.796-.165 4.796-.165l-1.7-1.985zm-2.775 7.513a3.63 3.63 0 0 0-.58.023c-.993.165-2.552 1.44-3.733 1.464-1.181.024-3.236-.4-3.826-.354-.591.048-2.765.922-3.19 1.158-.425.236-3.307.402-3.945.496s-2.032-.166-2.339-.213c-.307-.047-1.346.496-1.346.496l-.354 2.48s1.251-.495 1.559-.519c.307-.024 1.44.284 2.575.284 1.134 0 4.181-1.181 5.457-1.465 1.275-.283 6.402-.52 7.795-1.04 1.394-.52 4.607-.873 5.457-.448.851.425 4.488.448 4.488.448l.119.52s-.94 1.272-2.15 1.914c1.07.38 2.15.33 2.15.33l.401-1.96-.968-3.048c-1.158.02-5.77-.537-7.57-.566zm2.526 4.998c-2.28.037-5.22.547-6.46 1.309-1.654 1.016-2.15 2.102-2.647 2.41-.496.306-4.842 2.787-5.291 3.141-.449.355-4.181.703-5.953-1.701.709-.118 2.598.497 4.323.071 1.725-.425 6.945-4.488 6.945-4.488s-1.701.449-3.095.401c-1.393-.047-3.283 1.04-4.559 1.205-1.276.165-3.496.756-3.969.898-.472.142-1.417-.49-1.417-.49l.567 3.891s1.984 1.654 3.921 1.82c1.937.165 3.638.165 3.638.165s-1.204.685-2.196.945c-.993.26-3.592 0-4.773-.425l1.394 3.307s2.174.378 4.489-.118 3.685-2.74 4.134-3.567c.449-.827 3.685-1.961 4.134-2.599.449-.638 1.488-2.764 3.709-3.732a235.68 235.68 0 0 0 5.079-2.316c-.526-.1-1.213-.14-1.973-.127zm1.127 2.619c-1.825-.037-4.763 3.739-5.273 4.36-.543.66-5.386 3.165-5.622 3.614-.236.449-1.418 2.504-3.85 3.236-2.434.733-4.725.378-4.725.378l2.197 2.22s3.544-.637 4.748-1.605c1.205-.969 2.693-1.536 3.897-1.442-.448 1.158-3.637 4.158-5.858 4.441l1.56.945s1.512-.425 2.386-.85c.874-.426 2.716-.33 3.66-.874.946-.543 2.245-2.079 3.072-2.22.827-.142 3.402.85 3.402.85l2.339-2.363s-1.961.047-3.591-.685c-.63-.283-1.848-.113-2.577-.161-1.157-.076-1.836-.27-2.691-.43-1.394-.26-1.985-.188-1.985-.188s1.016-.59 2.977-.614c1.96-.024 4.7-1.064 6.614-1.087 1.914-.024 2.788.213 2.788.213l.567-1.63s-1.795.094-3-.355c0 0 1.559-.33 2.622-.756-1.512-.661-4.82-.52-6.308-.07 1.04-1.158 2.953-2.127 4.11-2.221 1.158-.095 3.26.142 3.26.142l.19-2.08s-2.787-.094-4.56-.708a1.13 1.13 0 0 0-.349-.06z" fill="#4cda04"/><path d="M19.844 2.037c-8.886 0-14.08 9.48-14.08 18.922 0 0 1.718-16.918 14.08-16.918s14.08 16.918 14.08 16.918c0-9.442-5.195-18.923-14.08-18.923z" opacity=".238" fill="#fff"/><path d="M5.764 20.959c.25 12.682 10.938 16.691 14.08 16.691 3.141 0 13.83-4.009 14.08-16.691-1.822 10.27-10.607 13.433-14.08 13.433-3.474 0-12.258-3.164-14.08-13.433z" opacity=".541"/><path d="M19.844 2.037c-5.953 0-14.08 5.976-14.08 18.922 0 10.441 7.34 16.691 14.08 16.691s14.08-6.25 14.08-16.691c0-12.946-8.127-18.923-14.08-18.923z" fill="none" stroke="#000" stroke-width="1.058"/></svg>