<svg xmlns="http://www.w3.org/2000/svg" viewBox="0 0 39.687 39.687"><path d="M19.844 2.037c-5.953 0-14.08 5.976-14.08 18.922 0 10.441 7.34 16.691 14.08 16.691s14.08-6.25 14.08-16.691c0-12.946-8.127-18.923-14.08-18.923z" fill="#00b5b8"/><path d="M20.93 1.984c3.874 3.922 3.733 10.064 5.764 10.111 2.032.047.898-4.394-1.417-8.457 0 0-3.26-1.706-4.347-1.654zm-4.53.61c-1.075.17-4.202 2.41-4.202 2.41-2.431 8.136-2.528 11.597-.515 11.876 1.79.249 1.25-7.626 4.716-14.286zm1.908 5.036c-1.155.064-1.583 4.749-1.157 10.23.425 5.48 1.228 10.535 2.267 10.346 1.04-.189 1.465-5.433 1.181-10.3-.283-4.866-.92-10.35-2.29-10.276zM7.56 12.378c-.284-.141-2.458 4.914-1.89 9.922.566 5.008 3.024 8.835 3.024 8.835 1.18-1.795-1.276-6.803-1.513-9.59-.236-2.788.662-9.025.379-9.167zm24.898.331c-.236.142-.094 6.898-.283 10.82-.19 3.92-1.984 8.551-1.984 8.551 1.936-2.078 3.448-5.905 3.732-10.158.283-4.252-1.229-9.355-1.465-9.213zm-6.605 3.317c-1.37-.075-.779 4.323-1.063 9.19-.283 4.866-2.126 9.732-1.086 9.922 1.039.188 3.543-4.583 3.968-10.064.426-5.48-.663-8.984-1.819-9.048zm-13.647 6.471c-1.202.093-.692 4.778.41 8.11 1.53 4.628 5.23 7.475 6.282 7.376 1.052-.1-1.574-1.359-3.21-6.606-1.167-3.738-1.38-8.558-3.36-8.874a.52.52 0 0 0-.122-.005z" fill="#ff6b00"/><path d="M19.844 2.037c-8.886 0-14.08 9.48-14.08 18.922 0 0 1.718-16.918 14.08-16.918s14.08 16.918 14.08 16.918c0-9.442-5.195-18.923-14.08-18.923z" opacity=".238" fill="#fff"/><path d="M5.764 20.959c.25 12.682 10.938 16.691 14.08 16.691 3.141 0 13.83-4.009 14.08-16.691-1.822 10.27-10.607 13.433-14.08 13.433-3.474 0-12.258-3.164-14.08-13.433z" opacity=".541"/><path d="M19.844 2.037c-5.953 0-14.08 5.976-14.08 18.922 0 10.441 7.34 16.691 14.08 16.691s14.08-6.25 14.08-16.691c0-12.946-8.127-18.923-14.08-18.923z" fill="none" stroke="#000" stroke-width="1.058"/></svg>