<svg xmlns="http://www.w3.org/2000/svg" viewBox="0 0 39.687 39.687"><path d="M19.844 2.037c-5.953 0-14.08 5.976-14.08 18.922 0 10.441 7.34 16.691 14.08 16.691s14.08-6.25 14.08-16.691c0-12.946-8.127-18.923-14.08-18.923z" fill="#00d89f"/><path d="M20.119 1.919c-1.136-.013-2.393.166-2.413.531-.036.65.91 3.012 1.641 3.012.58 0 1.146-1.028 1.3-1.288.153-.26 1.488-1.323 1.264-1.877-.099-.243-.91-.368-1.793-.378zm-4.852 2.18c-.545.029-1.737.742-1.294 1.174.473.46 2.327-1.028 1.394-1.17a.502.502 0 0 0-.1-.003zM11.8 5.474s-3.308 3.32-2.823 3.662c.484.343 3.047-.944 3.153-1.712.107-.768-.33-1.95-.33-1.95zm7.527 2.711c-1.57 0-3.09.668-3.074 2.74.017 2.07-.585 3.69-2.388 4.51-1.804.818-2.105 1.787-1.621 3.307s6.678.848 9.371-.971c2.694-1.82 3.615-6.308 2.528-7.37-1.087-1.064-3.821-2.216-4.816-2.216zm7.717.384c-.593 0-1.102.2-1.027.743.075.543.969 1.37 1.628 1.236.66-.133.602-.851.477-1.094-.126-.242-.752-.885-1.078-.885zm-14.999.824a1.173 1.173 0 0 0-.458.074c-.708.263-1.17 2.197-.744 3.402.425 1.204 2.244.165 2.422-.922.089-.547.143-1.313-.148-1.856-.216-.4-.622-.68-1.072-.698zm-5.383 5.094-.532 2.327s.32.59 1.016.213c.697-.378.212-2.009-.484-2.54zm20.157.501a2.13 2.13 0 0 0-.585.054c-1.207.286-1.642 2.256-.839 3.343.803 1.086 2.882 1.322 3.284-.095.401-1.417.12-2.434-.331-2.752-.401-.282-.95-.524-1.53-.55zm4.902 2.651c-.718 0-1.127.619-1.094 1.47.034.853-.426 1.428-1.086 2.046-.66.619-1.01.886-.359 2.414.652 1.529 1.019 3.308 2.614 3.308 1.596 0 1.938-2.586 2.08-5.067.141-2.48-.435-4.17-2.155-4.17zm-24.137 1.02c-1.053 0-2.138 1.82-1.537 2.84.601 1.018 2.79 1.586 3.558 1.653.768.067.785-1.036.618-1.838-.167-.801-1.604-2.655-2.64-2.655zm8.636 2.405c-1.838 0-3.508 1.119-3.207 2.154.3 1.036 1.319 1.704 2.054 1.237.735-.468 2.021-1.337 3.04-1.203 1.02.134 1.604-.417.902-1.236-.701-.819-1.854-.952-2.79-.952zm8.268 1.177c-1.294 0-2.138.334-2.271 1.37-.134 1.036.225 2.548.91 2.498.685-.05.893-1.103 1.144-1.32.25-.217 1.32.284 1.712-.3.393-.586.468-1.212.242-1.596-.225-.384-1.094-.652-1.737-.652zM6.06 23.97s.555 3.603.945 3.792c.39.19 1.382-1.37 1.359-2.208-.024-.84-1.76-1.583-2.304-1.583zm11.48 1.402c-1.17 0-3.842 1.17-3.742 2.44.1 1.269 1.203 1.603 1.287 2.288.083.684-.05.885.434 1.62s1.337 1.67 2.506 1.77c1.17.1 2.203-.738 2.097-1.907-.106-1.17-1.069-.572-1.21-2.073-.142-1.5.555-1.724.295-2.516-.26-.79-.935-1.622-1.667-1.622zm-7.972 2.626c-.434-.047-1.004 1.205-.673 1.713s.898.284.839-.236c-.06-.52.366-.638.39-.886.023-.248-.249-.557-.556-.59zm16.631.213c-.898 0-.744 1.465-1.17 2.044-.424.578-.909 1.83-.117 3.118.791 1.287 2.846 1.228 3.673-.414.827-1.641-1.146-4.748-2.386-4.748zm-14.374 3.532c-.757 0-1.784.838-1.76 1.146.023.307 4.736 3.815 4.996 3.626.26-.19.094-1.158-.508-1.772-.603-.615-1.642-1.335-1.737-1.783-.094-.45-.306-1.217-.992-1.217z" fill="#ffd418"/><path d="M19.844 2.037c-8.886 0-14.08 9.48-14.08 18.922 0 0 1.718-16.918 14.08-16.918s14.08 16.918 14.08 16.918c0-9.442-5.195-18.923-14.08-18.923z" opacity=".238" fill="#fff"/><path d="M5.764 20.959c.25 12.682 10.938 16.691 14.08 16.691 3.141 0 13.83-4.009 14.08-16.691-1.822 10.27-10.607 13.433-14.08 13.433-3.474 0-12.258-3.164-14.08-13.433z" opacity=".541"/><path d="M19.844 2.037c-5.953 0-14.08 5.976-14.08 18.922 0 10.441 7.34 16.691 14.08 16.691s14.08-6.25 14.08-16.691c0-12.946-8.127-18.923-14.08-18.923z" fill="none" stroke="#000" stroke-width="1.058"/></svg>