<svg xmlns="http://www.w3.org/2000/svg" viewBox="0 0 39.687 39.687"><path d="M19.844 2.037c-5.953 0-14.08 5.976-14.08 18.922 0 10.441 7.34 16.691 14.08 16.691s14.08-6.25 14.08-16.691c0-12.946-8.127-18.923-14.08-18.923z" fill="#6ded16"/><path d="m14.197 3.59-2.102 1.347s2.528 4.134 8.292 3.898C26.15 8.6 29.104 6.45 29.104 6.45l-2.41-2.031s-1.488 1.842-5.858 2.031c-4.37.189-6.639-2.858-6.639-2.858zm-3.33 2.623L9.355 8.244s1.346 6.331 7.606 7.702c6.26 1.37 11.056-1.866 12.71-2.764s2.93-.567 2.93-.567l-1.537-3.26s-1.219-.018-2.34.721c-1.389.916-2.441 2.305-7.487 2.492-7.016.26-10.37-6.355-10.37-6.355zm-3.071 4.536L6.48 14.497c2.472.802 3.441 10.056 11.793 10.557 8.352.501 10.223-3.04 15.702-3.374l-.134-4.076c-5.312.167-4.977 3.709-12.862 3.709-7.884 0-10.94-9.17-13.184-10.564zm-2.017 7.423.034 5.412c2.372.435 4.677 9.02 11.66 9.421 6.982.401 11.492-3.942 14.766-3.574l1.07-3.241c-5.914-.134-5.547 3.775-14.367 2.806-8.82-.969-9.12-9.955-13.163-10.824zm2.239 11.56c.902 2.672 4.911 7.918 11.825 7.918 6.915 0 10.492-5.447 10.492-5.447-4.11-.534-5.88 4.243-11.76 4.11-5.88-.134-6.915-4.778-10.557-6.582z" fill="#ffda00"/><path d="M19.844 2.037c-8.886 0-14.08 9.48-14.08 18.922 0 0 1.718-16.918 14.08-16.918s14.08 16.918 14.08 16.918c0-9.442-5.195-18.923-14.08-18.923z" opacity=".238" fill="#fff"/><path d="M5.764 20.959c.25 12.682 10.938 16.691 14.08 16.691 3.141 0 13.83-4.009 14.08-16.691-1.822 10.27-10.607 13.433-14.08 13.433-3.474 0-12.258-3.164-14.08-13.433z" opacity=".541"/><path d="M19.844 2.037c-5.953 0-14.08 5.976-14.08 18.922 0 10.441 7.34 16.691 14.08 16.691s14.08-6.25 14.08-16.691c0-12.946-8.127-18.923-14.08-18.923z" fill="none" stroke="#000" stroke-width="1.058"/></svg>