<svg xmlns="http://www.w3.org/2000/svg" viewBox="0 0 39.687 39.687"><path d="M19.844 2.037c-5.953 0-14.08 5.976-14.08 18.922 0 10.441 7.34 16.691 14.08 16.691s14.08-6.25 14.08-16.691c0-12.946-8.127-18.923-14.08-18.923z" fill="#5c70f3"/><path d="m19.21 2.17-2.99.701s.968 1.136.868 1.453c-.1.318-1.035 1.153-1.035 1.153s1.67.033 1.77.635c.1.6-.45 2.338-.45 2.338s2.02-1.487 2.271-1.303c.25.184.084 1.788.084 1.788s1.42-1.404 1.92-1.42c.502-.017 1.688.768 2.256.818-.134-.635-1.47-2.105-1.487-2.372-.017-.267.902-1.62.902-1.62s-1.687.501-1.871.134c-.184-.368.702-1.82.702-1.82l-1.07-.419s-.701.752-1.118.752c-.419 0-.752-.819-.752-.819zm8.168 2.706-.017.083s-.233.969-.434 1.053c-.2.083-1.136-.185-1.136-.185s.768.87.752 1.254c-.017.384.601 1.52.601 1.887.451-.467 1.454-1.186 2.306-.952.852.234.801.1.801.1l-2.873-3.24zm-16.653 1.75-.969.78s-.968 2.268-.472 1.535c.496-.732 1.5-.437 1.96-.449-.543-.46-.52-1.866-.52-1.866zm2.982 2.115c-.166.915.931 3.108.63 4.236-.254.952-.94 1.595-2.036 2.284 0 0 2.76-.054 3.072.474.312.527-3.29 4.946-3.29 4.946s4.793-1.304 5.474-.68c.68.625-.006 3.623-.006 3.623s1.22-2.112 1.953-1.844c.732.269 2.346 2.627 3.965 3.928-.319-2.052-1.553-4.63-1.42-5.398.134-.768 2.573-.768 2.573-.768s-2.439-1.504-2.64-2.406c-.2-.902 2.907-4.41 2.907-4.41s-5.044 1.17-5.345.635c-.3-.534.668-2.505.668-2.505-1.144.604-2.252.835-3.203.579-1.128-.303-2.427-2.38-3.302-2.694zm18.064 2.582s-.501 1.153-1.17 1.22c0 0 1.521.568 1.42 1.069-.1.501-1.586 2.255-1.586 2.255s2.121-.434 2.338-.1c.217.334.118 1.987.118 1.987l.584-1.119-1.704-5.312zM6.325 14.838l-.612 2.466.29 5.937c.336-.283.662.003.892.143.464.28 1.319 1.77 2.25 2.873.056-1.442-.444-2.997-.25-3.504.193-.506 2.124-.382 2.124-.382s-1.664-1.55-1.681-2.193c-.017-.642 2.536-2.32 2.536-2.32s-3.464-.174-3.598-.579c-.134-.404 1.09-1.887 1.09-1.887-1.113.227-2.248.143-3.041-.554zm23.325 4.32s-.752 1.018-1.32 1.37c-.568.35-1.47.918-1.47.918s.885.585 1.07.935c.183.351.3 1.286.3 1.286s.702-.835 1.07-1.035c.367-.2 1.452-.117 1.452-.117s-.534-.701-.501-1.052c.033-.35-.55-1.537-.601-2.305zm3.775 4.878s-.568.768-.852.818c0 0 .484.618.134.918-.351.301-1.303.568-1.303.568s1.32.368 1.336.752c.017.384.719-1.202.719-1.202l-.034-1.854zm-17.39.584s-.15.668-.434 1.036c-.283.367-1.47.467-1.47.467s.636.618.97.936c.334.317.467 1.052.283 1.353.284-.184 1.336-.435 1.654-.769.317-.334 2.055-.551 2.055-.551s-1.036-.518-1.637-.919c-.601-.4-1.42-1.553-1.42-1.553zm9.489 1.386s.411 1.387.35 2.38c-.057.94-1.653.81-1.653.81s1.069.218 1.303 1.22c.234 1.003-1.27 1.955-1.27 1.955s1.236-.401 2.122-.318c.885.084 0 1.955 0 1.955s.55-.368 1.102-.618c.551-.25 1.253.55 1.253.55L31.254 31s-1.27.068-1.404-.4c-.133-.468 1.838-2.021 1.838-2.021s-2.54.618-2.856.033c-.318-.584.668-1.82.668-1.82s-1.103.818-1.771.868c-.669.05-2.205-1.654-2.205-1.654zM8.586 29.213c.701.852 1.119 2.556 1.537 3.792.417 1.236 5.278 3.475 5.278 3.475s.134-.736.935-.435c.802.301 3.725 1.07 3.725 1.07s-2.756-1.503-2.923-2.389c-.167-.885 2.239-1.955 2.239-1.955s-3.141.836-3.525.285c-.384-.552.317-2.907.317-2.907s-2.605 1.37-3.023 1.186c-.418-.184-.2-1.988-.2-1.988s-1.036.952-2.005.986c-.969.033-1.92-1.12-2.355-1.12z" fill="#03bf77"/><path d="M19.844 2.037c-8.886 0-14.08 9.48-14.08 18.922 0 0 1.718-16.918 14.08-16.918s14.08 16.918 14.08 16.918c0-9.442-5.195-18.923-14.08-18.923z" opacity=".238" fill="#fff"/><path d="M5.764 20.959c.25 12.682 10.938 16.691 14.08 16.691 3.141 0 13.83-4.009 14.08-16.691-1.822 10.27-10.607 13.433-14.08 13.433-3.474 0-12.258-3.164-14.08-13.433z" opacity=".541"/><path d="M19.844 2.037c-5.953 0-14.08 5.976-14.08 18.922 0 10.441 7.34 16.691 14.08 16.691s14.08-6.25 14.08-16.691c0-12.946-8.127-18.923-14.08-18.923z" fill="none" stroke="#000" stroke-width="1.058"/></svg>