<svg xmlns="http://www.w3.org/2000/svg" viewBox="0 0 39.687 39.687"><path d="M19.844 2.037c-5.953 0-14.08 5.976-14.08 18.922 0 10.441 7.34 16.691 14.08 16.691s14.08-6.25 14.08-16.691c0-12.946-8.127-18.923-14.08-18.923z" fill="#ba4900"/><path d="M14.332 3.606 12.094 5.31l4.51 3.04 8.151-1.437 3.041 2.506 3.073-.501-2.272-2.973-1.002.3-2.138-1.67-7.884 1.302-3.24-2.271zm-.267 6.38 8.686 5.38 7.35-1.838 3.54 4.477-.9-4.71L30 10.923l-7.951 1.77-7.985-2.706zm-5.58 2.24-1.302.701-.97 3.575 1.604-1.203 6.983 2.974 5.078-.034 5.279 2.171-5.647-4.877-4.877.033-6.147-3.34zm10.825 9.087-9.254.901 8.218 1.27 7.317 4.477 7.784-1.704.367-2.506-7.015 1.236-7.417-3.675zM5.88 24.119l.368 2.472 5.98-.568-6.348-1.904zm6.448 5.812-3.842 1.036 2.07 2.573.803-.701 4.71 3.34 5.814-.568 1.904 1.303.902-.501-2.54-2.94-5.11.535-4.711-4.076zm8.853.335 6.782 4.443 1.704-1.77-8.486-2.673z" fill="#fb891c"/><path d="M19.844 2.037c-8.886 0-14.08 9.48-14.08 18.922 0 0 1.718-16.918 14.08-16.918s14.08 16.918 14.08 16.918c0-9.442-5.195-18.923-14.08-18.923z" opacity=".238" fill="#fff"/><path d="M5.764 20.959c.25 12.682 10.938 16.691 14.08 16.691 3.141 0 13.83-4.009 14.08-16.691-1.822 10.27-10.607 13.433-14.08 13.433-3.474 0-12.258-3.164-14.08-13.433z" opacity=".541"/><path d="M19.844 2.037c-5.953 0-14.08 5.976-14.08 18.922 0 10.441 7.34 16.691 14.08 16.691s14.08-6.25 14.08-16.691c0-12.946-8.127-18.923-14.08-18.923z" fill="none" stroke="#000" stroke-width="1.058"/></svg>