<svg xmlns="http://www.w3.org/2000/svg" viewBox="0 0 39.687 39.687"><path d="M19.844 2.037c-5.953 0-14.08 5.977-14.08 18.922 0 10.442 7.34 16.692 14.08 16.692s14.08-6.25 14.08-16.692c0-12.945-8.127-18.922-14.08-18.922z" fill="#ff3459"/><path d="M20.119 1.919c-1.136-.013-2.393.166-2.413.531-.036.65.91 3.012 1.642 3.012.578 0 1.145-1.028 1.299-1.288.153-.26 1.488-1.322 1.264-1.877-.098-.243-.909-.369-1.792-.378zM15.267 4.1c-.545.028-1.737.741-1.294 1.173.473.46 2.327-1.028 1.394-1.17a.531.531 0 0 0-.1-.003zM11.8 5.474S8.492 8.793 8.977 9.135c.484.343 3.047-.944 3.154-1.712.106-.768-.331-1.95-.331-1.95zm7.527 2.71c-1.57 0-3.09.668-3.074 2.74.017 2.07-.584 3.691-2.388 4.51-1.804.818-2.105 1.787-1.62 3.307.484 1.52 6.678.848 9.37-.971 2.694-1.819 3.615-6.308 2.528-7.37-1.086-1.064-3.82-2.216-4.816-2.216zm7.717.384c-.593 0-1.102.2-1.027.744.075.542.969 1.37 1.629 1.236.66-.134.601-.852.476-1.094-.125-.243-.752-.886-1.078-.886zm-14.999.824a1.174 1.174 0 0 0-.458.074c-.708.263-1.169 2.197-.744 3.402.425 1.205 2.245.165 2.422-.921.09-.548.143-1.314-.148-1.857-.216-.4-.622-.68-1.072-.698zm-5.383 5.094-.532 2.327s.32.59 1.016.213c.697-.378.213-2.009-.484-2.54zm20.157.502a2.13 2.13 0 0 0-.585.053c-1.207.286-1.642 2.256-.839 3.343.804 1.087 2.882 1.323 3.284-.095.401-1.417.121-2.434-.33-2.752-.402-.281-.95-.524-1.53-.55zm4.903 2.65c-.719 0-1.128.619-1.094 1.47.033.853-.426 1.429-1.086 2.047-.66.618-1.01.885-.36 2.414.652 1.528 1.02 3.307 2.615 3.307 1.595 0 1.937-2.586 2.079-5.066.142-2.48-.435-4.171-2.154-4.171zm-24.138 1.02c-1.053 0-2.138 1.82-1.537 2.84.602 1.018 2.79 1.586 3.558 1.653.768.067.785-1.036.618-1.838-.167-.801-1.604-2.655-2.64-2.655zm8.636 2.405c-1.838 0-3.508 1.119-3.207 2.155.3 1.035 1.32 1.704 2.054 1.236.735-.468 2.021-1.336 3.04-1.203 1.02.134 1.604-.417.903-1.236-.702-.818-1.855-.952-2.79-.952zm8.268 1.178c-1.294 0-2.138.334-2.271 1.37-.134 1.035.225 2.547.91 2.497.685-.05.894-1.103 1.144-1.32.251-.217 1.32.284 1.712-.3.393-.585.468-1.212.243-1.596-.226-.384-1.094-.651-1.738-.651zM6.06 23.97s.554 3.603.944 3.792c.39.189 1.382-1.37 1.359-2.209-.024-.839-1.76-1.583-2.303-1.583zm11.48 1.402c-1.17 0-3.843 1.17-3.742 2.439.1 1.27 1.202 1.603 1.286 2.288.083.685-.05.886.434 1.62.485.736 1.337 1.67 2.506 1.771 1.17.1 2.204-.738 2.097-1.907-.106-1.17-1.069-.573-1.21-2.073-.142-1.5.555-1.725.295-2.516-.26-.792-.935-1.622-1.667-1.622zm-7.973 2.626c-.434-.047-1.004 1.204-.673 1.712.33.508.898.284.839-.236-.06-.52.366-.637.39-.886.024-.248-.249-.557-.556-.59zm16.631.212c-.897 0-.744 1.465-1.169 2.044-.425.579-.91 1.83-.118 3.118.792 1.288 2.846 1.229 3.673-.413.827-1.642-1.145-4.749-2.386-4.749zm-14.374 3.532c-.756 0-1.784.839-1.76 1.146.023.307 4.736 3.815 4.996 3.626.26-.189.094-1.158-.508-1.772-.602-.614-1.642-1.334-1.736-1.783-.095-.45-.307-1.217-.992-1.217z" fill="#f8e500"/><path d="M19.844 2.037c-8.886 0-14.08 9.48-14.08 18.922 0 0 1.718-16.918 14.08-16.918s14.08 16.918 14.08 16.918c0-9.441-5.195-18.922-14.08-18.922z" opacity=".238" fill="#fff"/><path d="M5.764 20.96c.25 12.681 10.938 16.69 14.08 16.69 3.141 0 13.83-4.009 14.08-16.69-1.822 10.269-10.607 13.433-14.08 13.433-3.474 0-12.258-3.164-14.08-13.434z" opacity=".541"/><path d="M19.844 2.037c-5.953 0-14.08 5.976-14.08 18.922 0 10.442 7.34 16.692 14.08 16.692s14.08-6.25 14.08-16.692c0-12.946-8.127-18.922-14.08-18.922z" fill="none" stroke="#000" stroke-width="1.058"/></svg>