<svg xmlns="http://www.w3.org/2000/svg" viewBox="0 0 39.687 39.687"><path fill="#fff2ab" d="M19.844 2.037c-5.953 0-14.08 5.977-14.08 18.922 0 10.442 7.34 16.692 14.08 16.692s14.08-6.25 14.08-16.692c0-12.945-8.127-18.922-14.08-18.922z"/><path d="M14.304 26.206c0 2.871-1.27 5.198-2.837 5.198-1.568 0-2.838-2.327-2.838-5.198 0-2.872 1.27-5.199 2.838-5.199 1.567 0 2.837 2.327 2.837 5.199Z" style="fill:#f86532;transform-origin:11.4665px 26.2055px" transform="rotate(-12.197 0 0)"/><path d="M31.099 26.205c0-2.871-1.27-5.198-2.837-5.198-1.568 0-2.838 2.327-2.838 5.198 0 2.872 1.27 5.199 2.838 5.199 1.567 0 2.837-2.327 2.837-5.199Z" style="fill:#f86532;transform-origin:28.262px 26.205px" transform="rotate(-167.803 0 0)"/><path fill="#f86532" d="M16.771 4.308c-2.238 2.338-5.111 10.022-4.276 12.495.835 2.472 4.343 3.374 4.343 3.374s-1.637 3.24-1.27 4.944c.368 1.704 3.496 4.456 3.237 6.629 0 0-4.705-.676-6.521-4.866-1.228-2.835-1.748-1.512-1.606-.19.142 1.323-.473 3.97-1.937 4.253l-.804-1.488s-.924-1.771-1.302-2.811-.564-2.765-.564-2.765 2.192 13.75 13.64 13.75 13.64-13.75 13.64-13.75.005 1.84-.373 2.88c-.378 1.039-1.493 2.696-1.493 2.696l-.804 1.488c-1.464-.284-2.078-2.93-1.937-4.253.142-1.322-.378-2.645-1.606.189-1.816 4.191-6.52 4.867-6.52 4.867-.26-2.173 2.868-4.925 3.236-6.629.367-1.703-1.27-4.944-1.27-4.944s3.508-.902 4.344-3.374c.835-2.473-2.038-10.157-4.277-12.495 1.07 1.67 3.207 7.149 2.405 10.356-.801 3.207-4.443 3.174-4.443 3.174 1.838 3.976 1.136 8.052-.902 8.052s-2.74-4.076-.902-8.052c0 0-3.642.033-4.443-3.174-.802-3.207 1.336-8.686 2.405-10.356Z"/><path fill="#f86532" d="M25.922 32.117c.343-.07.122 1.991-1.033 2.927-1.32 1.069-2.84.985-2.84.985s3.125-2.89 3.693-3.742c.07-.106.13-.16.18-.17ZM13.5 32.117c.05.01.11.064.18.17.569.852 3.693 3.742 3.693 3.742s-1.52.084-2.84-.985c-1.155-.936-1.376-2.997-1.033-2.927Z"/><path fill="#fff" d="M19.844 2.037c-8.886 0-14.08 9.48-14.08 18.922 0 0 1.718-16.918 14.08-16.918s14.08 16.918 14.08 16.918c0-9.441-5.195-18.922-14.08-18.922z" opacity=".238"/><path d="M5.764 20.96c.25 12.681 10.938 16.69 14.08 16.69 3.141 0 13.83-4.009 14.08-16.69-1.822 10.269-10.607 13.433-14.08 13.433-3.474 0-12.258-3.164-14.08-13.434z" opacity=".541"/><path fill="none" stroke="#000" stroke-width="1.058" d="M19.844 2.037c-5.953 0-14.08 5.976-14.08 18.922 0 10.442 7.34 16.692 14.08 16.692s14.08-6.25 14.08-16.692c0-12.946-8.127-18.922-14.08-18.922z"/></svg>
