<svg xmlns="http://www.w3.org/2000/svg" viewBox="0 0 39.687 39.687"><path d="M19.844 2.037c-5.953 0-14.08 5.977-14.08 18.922 0 10.442 7.34 16.692 14.08 16.692s14.08-6.25 14.08-16.692c0-12.945-8.127-18.922-14.08-18.922z" fill="#4019d2"/><path d="m19.844 2.037-2.605.3s1.537 1.236 2.004 1.97c.468.736.635 6.716.635 6.716s2.072-5.48 2.105-6.18c.034-.703-1.637-1.638-1.938-1.872-.3-.233-.201-.934-.201-.934zm3.776 1.502s.1 4.41.234 5.011c.133.602 1.77 1.972 1.637 2.54-.134.568-2.372 3.708-2.372 4.042 0 .334 2.271 3.642 2.405 4.243.134.601.167 5.713.167 5.713s2.34-5.88 2.306-6.381c-.034-.501-1.805-2.84-1.805-3.441 0-.602 1.437-3.976 1.537-4.41.1-.435-1.837-2.472-2.138-3.007-.3-.534-1.971-4.31-1.971-4.31zm-9.655 1.036s-4.978 4.61-5.245 5.612c-.267 1.003.902 4.945.768 5.446-.133.501-1.971 4.343-1.938 5.078.034.735 2.072 3.475 2.272 4.143.2.668-.134 4.777-.134 4.777s2.84-4.376 2.84-5.378c0-1.002-1.837-3.575-1.703-4.243.133-.669 1.77-3.007 1.87-4.076.1-1.07-1.47-3.642-1.503-4.41-.033-.769 2.773-6.95 2.773-6.95zm3.173 2.138s-2.605 5.245-2.505 6.08c.1.836 3.04 3.575 2.94 4.444-.1.868-1.87 2.94-1.838 3.207.034.267 3.308 3.642 3.241 3.976-.067.334-1.27 2.873-1.102 3.407.167.535 2.572 7.217 2.572 7.217s.535-6.415.668-7.05c.134-.634 1.704-3.407 1.704-3.875 0-.468-2.706-2.907-2.806-3.842-.1-.936.668-3.942.535-4.443-.134-.501-3.776-2.974-3.876-3.709-.1-.735.467-5.412.467-5.412zM31.17 9.887s-.902 3.274-.768 3.842c.133.568 1.67 2.573 1.737 3.007.067.434-1.069 4.243-.935 4.91.133.669 1.37 2.172 1.37 2.64 0 .468-2.005 3.375-2.005 3.709 0 .334.535 2.973.535 2.973s2.867-3.915 2.82-10.01c-.048-6.093-2.754-11.071-2.754-11.071zM13.136 27.963s.24 3.44.2 4.075c-.033.548-.667 2.227-.734 3.074 1.537 1.704 4.944 2.172 4.944 2.172-.367-.836-2.272-2.306-2.305-2.54-.033-.234-.067-2.405-.067-2.873 0-.467-2.038-3.908-2.038-3.908zm14.994.032s-3.14 3.173-3.14 3.64c0 .469.4 2.407.367 2.64-.033.234-1.503 1.57-1.87 2.406 0 0 2.973-.334 4.51-2.038-.067-.848-.702-2.526-.736-3.074-.038-.634.87-3.574.87-3.574z" fill="#ede1a4"/><path d="M19.844 2.037c-8.886 0-14.08 9.48-14.08 18.922 0 0 1.718-16.918 14.08-16.918s14.08 16.918 14.08 16.918c0-9.441-5.195-18.922-14.08-18.922z" opacity=".238" fill="#fff"/><path d="M5.764 20.96c.25 12.681 10.938 16.69 14.08 16.69 3.141 0 13.83-4.009 14.08-16.69-1.822 10.269-10.607 13.433-14.08 13.433-3.474 0-12.258-3.164-14.08-13.434z" opacity=".541"/><path d="M19.844 2.037c-5.953 0-14.08 5.976-14.08 18.922 0 10.442 7.34 16.692 14.08 16.692s14.08-6.25 14.08-16.692c0-12.946-8.127-18.922-14.08-18.922z" fill="none" stroke="#000" stroke-width="1.058"/></svg>