<svg xmlns="http://www.w3.org/2000/svg" viewBox="0 0 25.4 25.4"><path d="m12.103 5.354.206 2.09h.781l.207-2.09H12.7zm-1.965.321-.884.793 1.711 1.298.563-.482zm5.124 0-1.39 1.609.563.482 1.711-1.298zM9.492 7.78l-2.485 2.55.114.277 3.022 2.242 1.445 2.34v.276l-2.046 4.581h1.884l.958-3.227.316-.19.316.19.958 3.227h1.885l-2.047-4.581v-.277l1.446-2.34 3.022-2.241.113-.277-2.486-2.55-1.007.73 1.267 1.56-.325.244-1.088-.065-.731.585-.146.406-.342.163h-1.67l-.341-.163-.147-.406-.73-.585-1.09.065-.324-.244L10.5 8.51zm2.823.773c-.247 0-.713.408-.7.718l.045 1.172c.019.47.506.644.65.644h.78c.144 0 .631-.173.65-.644l.046-1.172c.012-.31-.454-.718-.701-.718H12.7z" fill="#fff"/></svg>