<svg xmlns="http://www.w3.org/2000/svg" viewBox="0 0 33.867 33.867"><path d="M16.404 3.175 13.229 6.35v12.7l-1.058-1.058V8.467h-1.059l-2.116 2.117H7.937l-1.058 1.058v9.525l6.35 6.35v3.175h7.408v-3.175l6.35-6.35v-9.525l-1.058-1.058h-1.058l-2.117-2.117h-1.058v9.525l-1.059 1.058V6.35l-3.175-3.175h-.529z" fill="#897ab9"/><path d="M12.17 14.287H6.88v-2.38l1.058-1.323h1.058l1.852-2.117h1.323zm4.234-11.112L13.229 6.35v5.821h7.409v-5.82l-3.175-3.176h-.53zm5.292 11.112h5.291v-2.38l-1.058-1.323h-1.058l-1.852-2.117h-1.323z" fill="#7616ff"/><path d="M16.404 3.175 13.229 6.35v12.7l-1.058-1.058V8.467h-1.058l-4.234 3.175v9.525l6.35 6.35v3.175h7.409v-3.175l6.35-6.35v-9.525l-4.234-3.175h-1.058v9.525l-1.059 1.058V6.35l-3.174-3.175h-.53z" fill="none" stroke="#000" stroke-width="1.058" stroke-linecap="round" stroke-linejoin="round"/></svg>