<svg xmlns="http://www.w3.org/2000/svg" viewBox="0 0 33.867 33.867"><path d="M27.693 4.653c-10.054-2.234-21.52 6.115-21.52 14.934 0 8.82 7.233 9.995 10.525 9.995 3.293 0 9.76-2.587 9.76-8.76 0-6.174-3.763-8.29-5.232-8.29 0 0 1-4.7 6.467-7.88z" fill="#ff0212"/><path style="line-height:normal;font-variant-ligatures:normal;font-variant-position:normal;font-variant-caps:normal;font-variant-numeric:normal;font-variant-alternates:normal;font-feature-settings:normal;text-indent:0;text-align:start;text-decoration-line:none;text-decoration-style:solid;text-decoration-color:#000;text-transform:none;text-orientation:mixed;white-space:normal;shape-padding:0;isolation:auto;mix-blend-mode:normal;solid-color:#000;solid-opacity:1" d="m6.534 280.627-.36 2.093.88 4.844.46 1.065a9.916 9.916 0 0 0 3.711 2.27c3.522 1.198 7.417.692 9.344-1.622 1.71-2.051 1.88-4.566.994-6.498-.886-1.932-2.81-3.352-5.1-3.352-4.421 0-5.966 4.881-3.552 6.961.9.776 1.962 1.133 2.957.981.994-.152 1.893-.91 2.156-1.946a1.06 1.06 0 1 0-2.052-.523c-.07.27-.16.337-.425.377-.265.04-.732-.044-1.253-.492-.678-.585-.817-3.24 2.17-3.24 1.415 0 2.606.872 3.176 2.115.57 1.242.532 2.785-.698 4.261-1.012 1.215-4.2 1.938-7.035.974-2.836-.965-5.28-3.256-5.299-7.884a1.059 1.059 0 0 0-.074-.384z" transform="translate(0 -263.133)" color="#000" font-weight="400" font-family="sans-serif" overflow="visible" fill="#5d1319"/><path d="M27.693 4.653c-10.054-2.234-21.52 6.115-21.52 14.934 0 8.82 7.233 9.995 10.525 9.995 3.293 0 9.76-2.587 9.76-8.76 0-6.174-3.763-8.29-5.232-8.29 0 0 1-4.7 6.467-7.88z" fill="none" stroke="#000" stroke-width="1.058" stroke-linecap="round" stroke-linejoin="round"/></svg>